<?xml version="1.0" encoding="utf-8"?>
<!-- Generator: Adobe Illustrator 27.4.1, SVG Export Plug-In . SVG Version: 6.00 Build 0)  -->
<svg version="1.1" id="Capa_1" xmlns="http://www.w3.org/2000/svg" xmlns:xlink="http://www.w3.org/1999/xlink" x="0px" y="0px"
	 viewBox="0 0 1920 1080" style="enable-background:new 0 0 1920 1080;" xml:space="preserve">
<style type="text/css">
	.st0{display:none;}
	.st1{display:inline;}
	.st2{fill:#FFFFFF;}
	.st3{fill:#877A3A;}
	.st4{fill:#E7CE3C;}
	.st5{fill:#D3512B;}
	.st6{fill:#C27259;}
	.st7{fill:#F03912;}
</style>
<g id="Capa_2_00000154390515941610057710000015135591301748262335_" class="st0">
	<g class="st1">
		<rect y="0" class="st2" width="1920" height="1079.8"/>
	</g>
</g>
<g id="Capa_1_00000018211024058685308510000002876507036815044252_">
	<g>
		<rect x="2035.7" y="263.4" class="st3" width="165.8" height="165.8"/>
	</g>
	<g>
		<rect x="2035.7" y="479.4" class="st4" width="165.8" height="165.8"/>
	</g>
	<g>
		<rect x="2035.7" y="695.4" class="st5" width="165.8" height="165.8"/>
	</g>
	<g>
		<rect x="2035.7" y="911.4" class="st6" width="165.8" height="165.8"/>
	</g>
	<g>
		<rect x="2288.5" y="693.4" class="st7" width="165.8" height="165.8"/>
	</g>
	<g>
		<path class="st5" d="M1850.6,999.7c-0.5-2.6-2-4.4-6.2-4c-10.7,0.8-20-3.7-29-8.8c-2.2-1.3-5.2-3.3-5.6-5.4
			c-2-9-4.5-18.2-4.5-27.3c0-17.4,1.5-34.8,2.5-52.2c0.1-2.2,0.6-4.4,0.5-6.6c-0.5-7.2,0-14.7-2.1-21.4
			c-5.4-17.5-11.9-34.7-18.1-52.5c4.7,0,9.3,0,14,0c11.6,0,17.4-4.8,20.8-16.3c1.3-4.3,3.5-8.5,5.9-12.4c3.7-5.9,7.5-11.6,3.6-18.9
			c-0.5-0.9-0.6-2.7-0.1-3.4c4.1-5.4,0.2-8.5-3.3-11.5c-4.8-4.2-7.4-8.9-5.9-15.5c3.2-14.8-3.2-23.9-18-25.4c-3-0.3-6.2,0.7-9.8,1.1
			c-0.2-2.1-0.3-4-0.6-5.8c-1.1-8.5-1.1-17.3-3.7-25.3c-2.1-6.7-3.3-11.9,3.1-15.9c4.9-3.1,6-10.8,14.1-10.3
			c3.2,0.2,8.9-2.5,9.5-4.9c2.1-8.1,7.2-17.2-2.6-24.4c-1-0.8-1.4-3.2-1.3-4.7c1.1-9.2-5.5-14.7-10.1-21.1
			c-5.7-7.9-13.8-7.8-21.8-6.4c-1.4-5.7-2.7-11-4-16.6c-5.3,0-10.4-1-14.8,0.3c-3.7,1.1-9.5,4.8-9.5,7.4c-0.1,8.5-9.2,17.3,0.4,25.6
			c0.4,0.4,0,1.8-0.2,2.7c-3.1,12.7,0.8,22.6,11.9,29.5c-1.5,7.9-7.3,11.6-13.8,14c-10.1,3.7-19.2,8.5-26.5,16.6
			c-1.3,1.4-3.6,2-4.7,2.6c-1.1-3.5-1.9-5.9-2.7-8.3c-2.9,1.2-6.1,1.9-8.6,3.6c-3.3,2.2-5.7,6.3-9.3,7.8c-11,4.6-22.6,7.8-33.5,12.5
			c-14.5,6.2-29.1,13.3-31.1,31.7c-1.1,10.4-1.9,21-0.8,31.3c1.3,12.2,4.6,24.3,7.6,36.3c0.7,2.7,3.1,5.7,5.6,7
			c12.7,7.1,26.6,9.5,41.1,8.4c3-0.2,5.9-0.9,7.5-1.1c2.4,9.8,4.5,18.5,6.5,27.1c0.5,2,0.6,4.2,0.3,6.2c-1.5,9.9-3.4,19.7-4.9,29.5
			c-2.1,13.2-6,24.6-20,30.7c-6.5,2.9-12.2,9.3-16.5,15.4c-6.9,9.7-11.9,20.7-18.6,30.5c-4.8,7.1-9.2,15-18.9,17.3
			c-4.2,1-5.7,4.4-3.4,8.7c1.1,2,2.2,4.1,3.7,6.9c-2.2,0-3.9,0.4-5.1-0.1c-5.1-2.2-10.4-2.1-12.8,3c-2.7,5.7,3.1,8.7,6.7,11.7
			c0.6,0.5,1.2,0.9,1.8,1.3h-98.5c-4.4-3.6-6.8-9.5-5.2-14.8c5.1-16.8,10.2-33.6,15.3-50.4c-0.1,9.4-0.7,18.9-1.5,28.4
			c-0.4,4.9,1.5,8,6.4,9.1c11.6,2.6,23.2,5.3,34.8,7.8c8.5,1.8,17,3.6,22.8-5.7c0.8-1.3,2.7-2.2,4.2-2.8c13.2-5.5,14.5-8.3,9.1-21.6
			c-10.4-25.9-22.1-51.1-40.1-72.9c7.9-7.4,2.8-14.9,0.2-22.8c8.4-2.9,7.2-8.3,4-14.6c-2.3-4.5-4-9.4-5.7-14.2
			c-7.1-21-16-41.5-13.9-64.5c0.3-3.8-1.5-8.3-3.7-11.5c-2.9-4.4-1.6-7,1.5-10.3c3.2-3.4,6.5-7,8.5-11.2c2.2-4.7,2.6-10.1,4.2-15.1
			c3.4-10.3-1.1-18.3-7-26.1c-5.8-7.6-14.4-4.4-21.8-5.8c-6.1-1.2-9.2,1.9-10.5,6.6c-1.4,5.2-1.5,10.8-2.2,16.2
			c-0.2,1.9,0.2,4.6-0.8,5.6c-7.4,7.3-11.5,18.7-24.3,19.4c-1.5,0.1-4.4,3.7-4.1,4.9c2.3,8.1-2.2,12.3-7.8,16.6
			c-2.4,1.8-3.7,5.1-5.7,7.5c-1.5,1.8-3.2,3.9-5.3,4.9c-15.4,7.8-26.2,19.5-30.7,36.5c-3.3,12.4-6.6,24.9-9.6,37.4
			c-3.2,13.3,0,24.2,9.2,27.5c9.8,3.5,20.1,5.3,30.2,7.9c1.5,0.4,3.9,0.5,4.4,1.5c2.5,4.6,6.6,4.1,10.8,4.6
			c5.6,0.6,12.1,0.5,14.5,7.5c3.8,11.2,5,22.4-1.7,33c-3.6,5.8-7.2,11.6-11.1,17.2c-5.5,7.9-9.1,17.3-20.5,19.7
			c-5.9,1.3-7,7.8-2.5,12.5c6.7,7,14.3,13.1,21.8,19.3c2.8,2.3,4.5,3.7,2.2,7.7c-0.9,1.6-1.6,3.3-2.2,5h-62.5c-1.4-0.4-2.8-1-4-1.8
			c-3.1-1.8-6.1-3.8-8.9-6.1c-5.2-4.2-13.6-7.8-14.7-12.9c-2.7-13,0.1-26.4,4.3-38.4c14.3-0.8,27.8-1.1,41.2-2.6
			c3-0.3,7.6-4.5,8.1-7.4c2.7-14.3-5.7-26.1-19.9-29.5c-7.4-1.8-10.3-7.1-9.5-14.8c0.7-6.8,0.1-13.7,0-20.6
			c-0.3-16.2-7.7-31-7.9-47.8c-0.2-15.7-7.8-31.3-11.7-47.1c-0.8-3.1-1.1-7.5,0.5-9.8c3.9-5.7,8.8-11,13.9-15.7
			c6.8-6.2,9.7-13.3,5.1-17.6c-6.9-6.4-14.4-12.4-22.5-17.1c-6.4-3.6-13.4-2.5-19.7,2.8c-8.9,7.4-13.2,17.2-16.6,27.8
			c-0.9,2.7-2,5.5-3.7,7.8c-3.4,4.7-7.1,9.1-10.2,12.9c-2.2-1.2-4.6-2.4-7-3.7c-1.3,2.6-2.7,5.3-4.3,8.4c-6.6,0.4-14.3,0.4-16.9,9.6
			c-0.2,0.5-1.8,1.1-2.6,0.9c-11.1-3-13,9.6-20.9,12.6c-4.8,1.8-8.6,8.2-11.2,13.4s-5.2,11.8-4.1,17c4,18.3,9.8,36.1,19.9,52.3
			c3.7,5.9,8.5,9,15,8.1c8.9-1.1,17.8-3.1,26.8-4.8c-0.4,4.2-0.9,9.5-1.6,14.8c-0.7,5.8,0.9,9.4,7.6,9.5c5,0,10,0.6,15.5,1
			c2.1,3.8,4.7,8.4,8,14.2c-4.5,3.1-9.9,5.6-13.6,9.7c-13.1,14.4-25.7,29.2-38.2,44.1c-1.3,1.6-1.6,5.7-0.5,7.2
			c2.6,3.4,6.4,8.2,9.6,8.1c5.7-0.1,6.5,2.6,7.6,5.9c-33.1,1.4-66,2.6-98.8,4.1c-13.5,0.6-26.9,2.1-40.3,2.7
			c-3.9,0.2-8.5-0.4-11.8-2.4c-11-6.6-15.6-19.9-13-33.3c0.9-4.5,0.7-9.2,0.4-13.8c-0.4-6.3-1.5-12.6-2-18.9c-0.1-1.1,1-2.7,2-3.5
			c11.5-8.5,23.1-16.8,34.7-25.2c10.6,7.5,22.1,16.3,34.2,24.1c4.5,2.9,10.3,4.7,15.7,5.1c14.8,1.2,26.5-5.4,35.7-16.7
			c9.4-11.6,10.6-26,2.3-34.7c-19.2-20.5-32.6-45-47.8-68.2c-1-1.5-1.4-4.3-0.6-5.8c3.4-6.6,2.1-12.7-1-18.9
			c-1.1-2.2-3.2-4.9-2.6-6.6c3-8.9-1.3-16.3-4.4-23.8c-4.6-11-10.7-21.5-14.5-32.7c-4.6-13.5-7.3-27.7-11.3-41.5
			c-2.4-8.3-5.7-16.4-8.5-24.7c-1.5-4.4-3.1-8.8-4.5-13.3c-0.7-2.3-0.3-6.4-1.3-6.8c-6.1-1.9-3.6-6.9-4.9-10.7
			c-2.5-7.2-1-14.1-0.7-21.2c0.1-3-0.7-6.4-2-9.1c-4.4-9.4-11.4-15.6-22.3-16.7c-12.2-1.2-21.4,3.1-27.7,13.8
			c-1.2,2.1-3.2,5.1-5,5.2c-16.8,0.9-25.3,10.7-29.6,25.7c-2.1,7.1,0,12,6.2,16c2.3,1.5,3.8,4.3,6.4,7.4c-4.7,1.4-7.3,2-9.7,3
			c-14.6,5.8-24.2,16.1-27.6,31.6c-2.8,13.1-4.8,26.3-7.8,39.3c-1.5,6.6-7.2,13-6.6,19.1c1.2,13.7-7.7,23.1-10.3,33.6
			c-7.4-4.6-14.5-9-22-13.7c0-6.4-0.8-13.6,0.2-20.7c1.2-8.3,0.2-15.7-6.8-20.3s-15.5-4.7-23.2-1.3c-8.2,3.7-8.5,11.9-9.4,19.4
			c-0.2,1.8,0.5,3.8,0.7,5.5c-10.5,7.6-11,10-5.4,17.5c-5,4.4-10.3,8.5-14.9,13.2c-10.1,10.2-13,23.7-15.7,37.1
			c-2.8,14.1,1.6,21.9,13.6,25c2.6,0.7,5.4,0.5,8.1,0.5c5.6,0,6.2,2.3,4.9,7.4c-2.1,7.9-4.6,16.2-4.3,24.2c0.4,11.1,3.6,22,4.9,33.1
			c0.9,8.1,1,16.3,0.6,24.5c-0.2,4-2.4,8-3.4,11.3c-3.2,1.9-8.6,3.2-9.2,5.7c-2.5,9.1-4.2,18.6-4.5,28c-0.1,4.3,2.8,9.3,5.8,12.9
			c3.9,4.7,10.1,3.1,11.6-2.8c1.2-4.6,0.5-9.7,1.6-14.4c0.8-3.1,3-8,5.1-8.3c15.4-2.1,26.4-9.6,33.1-24.1
			c0.7,22.1,10.2,43.3,5.5,65.3c-3.5,0.7-13.4,1.4-28.6,2.1H-6.1v20.8c-25.5,1-41.9,1.9-46.6,2.9c0,17.5-30,36.8-30,56.5
			c3.8,0,2052.8,0.2,2052.8,0l30-75.5v-4.8h-149.5V999.7z M1541.5,868.5c1-5.6,0.2-11.6,0.2-18.2c5.6,2.7,5.9,7.1,7.8,11.6
			c7,16.8-7.3,23.3-14.5,33.9c-1.2-3.7-2.1-6.7-3.1-9.9C1542.3,884.2,1540.3,875.1,1541.5,868.5z M1232.5,809
			c1.1-1.2,5.2-1.8,5.6-1.1c4.3,6.2,8.1,12.8,12.7,20.4c-7.5-4.9-13.7-8.9-20.5-13.3C1230.9,813.2,1231,810.5,1232.5,809z
			 M1227.4,804.7c-1.1,3.4-2.9,6.6-5,11c-3.8-3-6.3-4.9-8.7-6.8c3.5-2.6,7.1-5.4,10.8-7.8C1224.6,800.9,1227.7,803.8,1227.4,804.7z
			 M1211.5,767c4.4,10.3,8.2,18.9,12.2,28.2c-3.2,2.2-6.7,4.5-12.2,8.3C1211.5,790.7,1211.5,779.7,1211.5,767z M1368.1,956.6
			c0,11.8,0.9,22-0.3,32c-0.9,7.7-8.3,3.2-12.7,4.1c-4,0.8-4.8-1.8-5.8-5.5C1344.6,971.1,1357,965.6,1368.1,956.6z M1055.9,834.4
			c3.3-1.8,6.2-4.5,9.8-7.2c7.6,7.4,11.4-3.4,17.2-5.6c1.7-0.6,1.8-9,0.6-13.3c-3.2-11.6-1.6-21.5,6.8-31.9
			c0.2,14.4,9.8,23.4,15.9,34.5c9.2,16.7,15.5,35,22.6,52.8c5.5,13.7,1.4,28,1.3,42c0,4.6-1,9.2-1.6,13.9c-0.2,0.2-0.5,0.5-0.9,0.7
			c-4.4,3.1-12.2,5.9-12.4,9.3c-0.4,5.4,4,11.3,6.6,16.9c1.7,3.7,4.7,7.1,5.7,10.9c2.9,11.3,8.3,20.8,16.5,27.6
			c-0.9,4.9-1.6,8.8-2.6,14.6c-9,0-18.8,0-28.5,0c-8.9,0-17.8-0.7-26.6,0.2c-10.6,1.1-19.2-4-28.1-7.8c-5.6-2.3-6.8-12-5.6-21.5
			c1-8.6,0.2-17.5,0.2-26.8c8.8-1.4,10.3-7.5,9.9-15.5c-0.5-11-0.3-22-0.1-33c0.3-17.2-5.3-33.1-11.5-48.7
			C1048.5,839.8,1050.8,837.2,1055.9,834.4z M1654.1,990c-4.3-7.5-2.7-19.3,4.7-27.7c8.1-9.2,17.2-17.6,25.1-26.9
			c8.7-10.3,18.4-18.6,30.8-24.2c3.6-1.6,7-5.7,8.8-9.4c8.6-17.9,16.7-36,25.5-55.3c7.8,10.6,15.6,21.1,23.2,31.7
			c7.9,11,9.6,22.8,8,36.6c-1.3,12,2.5,24.5,4,36.9c0.6,4.6,1.2,9.2,1.4,13.8c0.3,10.3,0.3,20.6,0.5,31.8c-20.8,0-39.9-0.5-58.9,0.2
			c-10.5,0.4-21,1.3-31.5,2.3H1665C1660.6,997.8,1656.8,994.6,1654.1,990z"/>
	</g>
</g>
</svg>
