<?xml version="1.0" encoding="utf-8"?>
<!-- Generator: Adobe Illustrator 27.4.1, SVG Export Plug-In . SVG Version: 6.00 Build 0)  -->
<svg version="1.1" id="Capa_1" xmlns="http://www.w3.org/2000/svg" xmlns:xlink="http://www.w3.org/1999/xlink" x="0px" y="0px"
	 viewBox="0 0 1920 1080" style="enable-background:new 0 0 1920 1080;" xml:space="preserve">
<style type="text/css">
	.st0{fill:#D3512B;}
	.st1{fill:#D6B8F0;}
	.st2{fill:#ECE33F;}
	.st3{fill:#E7CE3C;}
	.st4{fill:#C27259;}
</style>
<g>
	<g>
		<g>
			<path class="st0" d="M1920,1080c0,0.2-2049,0-2052.8,0c0-19.7,0-39,0-56.5c42.2-8.6,1041.8-17.2,1084-25.8
				c4.7-22.1-4.8-43.2-5.5-65.3c-6.7,14.5-17.7,22-33.1,24.1c-2.1,0.3-4.3,5.2-5.1,8.3c-1.1,4.6-0.5,9.8-1.6,14.4
				c-1.5,5.9-7.7,7.5-11.6,2.8c-2.9-3.6-5.9-8.6-5.8-12.9c0.3-9.4,2-18.9,4.5-28c0.7-2.5,6-3.8,9.2-5.7c1.1-3.3,3.2-7.3,3.4-11.3
				c0.4-8.1,0.3-16.4-0.6-24.5c-1.2-11.1-4.5-22-4.9-33.1c-0.3-8,2.2-16.3,4.3-24.2c1.4-5.1,0.7-7.4-4.9-7.4c-2.7,0-5.5,0.2-8.1-0.5
				c-12-3-16.4-10.9-13.6-25c2.7-13.4,5.5-26.9,15.7-37.1c4.7-4.7,9.9-8.8,14.9-13.2c-5.6-7.5-5-9.9,5.4-17.5
				c-0.2-1.8-0.9-3.7-0.7-5.5c0.9-7.5,1.2-15.7,9.4-19.4c7.7-3.5,16.2-3.3,23.2,1.3c7,4.6,8,12,6.8,20.3c-1,7-0.2,14.3-0.2,20.7
				c7.5,4.6,14.6,9.1,22,13.7c2.6-10.5,11.5-19.9,10.3-33.6c-0.5-6.1,5.1-12.5,6.6-19.1c3.1-13,5-26.3,7.8-39.3
				c3.4-15.5,13-25.8,27.6-31.6c2.4-1,5-1.6,9.7-3c-2.6-3.1-4.1-6-6.4-7.4c-6.2-4-8.2-8.9-6.2-16c4.3-15,12.8-24.8,29.6-25.7
				c1.8-0.1,3.8-3.1,5-5.2c6.3-10.7,15.5-15,27.7-13.8c10.8,1.1,17.9,7.3,22.3,16.7c1.3,2.8,2.2,6.1,2,9.1
				c-0.3,7.1-1.7,14.1,0.7,21.2c1.3,3.7-1.2,8.7,4.9,10.7c1,0.3,0.6,4.5,1.3,6.8c1.3,4.5,2.9,8.9,4.5,13.3
				c2.9,8.2,6.1,16.3,8.5,24.7c4,13.8,6.7,27.9,11.3,41.5c3.8,11.2,9.9,21.7,14.5,32.7c3.2,7.5,7.4,14.9,4.4,23.8
				c-0.6,1.7,1.5,4.4,2.6,6.6c3.1,6.2,4.4,12.3,1,18.9c-0.8,1.5-0.4,4.3,0.6,5.8c15.3,23.2,28.6,47.8,47.8,68.2
				c8.2,8.8,7.1,23.2-2.3,34.7c-9.2,11.3-20.9,17.9-35.7,16.7c-5.4-0.4-11.2-2.2-15.7-5.1c-12.1-7.8-23.6-16.6-34.2-24.1
				c-11.6,8.4-23.2,16.7-34.7,25.2c-1,0.7-2.1,2.4-2,3.5c0.5,6.3,1.6,12.6,2,18.9c0.3,4.6,0.5,9.4-0.4,13.8
				c-2.7,13.4,1.9,26.7,13,33.3c3.3,2,7.9,2.5,11.8,2.4c13.5-0.6,26.9-2,40.3-2.7c32.8-1.5,65.7-2.8,98.8-4.1
				c-1.2-3.3-1.9-6-7.6-5.9c-3.2,0.1-7.1-4.8-9.6-8.1c-1.1-1.5-0.8-5.7,0.5-7.2c12.5-14.9,25.1-29.8,38.2-44.1
				c3.7-4.1,9.2-6.6,13.6-9.7c-3.2-5.8-5.8-10.4-8-14.2c-5.5-0.4-10.5-1-15.5-1c-6.7,0-8.3-3.7-7.6-9.5c0.7-5.3,1.1-10.6,1.6-14.8
				c-9,1.7-17.9,3.7-26.8,4.8c-6.5,0.8-11.3-2.2-15-8.1c-10.1-16.2-15.8-34-19.9-52.3c-1.1-5.2,1.5-11.9,4.1-17
				c2.6-5.2,6.4-11.6,11.2-13.4c7.9-3,9.8-15.5,20.9-12.6c0.8,0.2,2.4-0.4,2.6-0.9c2.6-9.2,10.3-9.1,16.9-9.6
				c1.6-3.2,2.9-5.8,4.3-8.4c2.4,1.3,4.8,2.6,7,3.7c3-3.8,6.8-8.2,10.2-12.9c1.6-2.3,2.8-5.1,3.7-7.8c3.4-10.6,7.7-20.3,16.6-27.8
				c6.3-5.3,13.3-6.5,19.7-2.8c8.1,4.6,15.6,10.7,22.5,17.1c4.7,4.3,1.7,11.4-5.1,17.6c-5.1,4.7-10,10-13.9,15.7
				c-1.6,2.3-1.3,6.7-0.5,9.8c4,15.8,11.6,31.4,11.7,47.1c0.2,16.8,7.6,31.6,7.9,47.8c0.1,6.9,0.7,13.8,0,20.6
				c-0.8,7.7,2.1,13,9.5,14.8c14.1,3.4,22.5,15.1,19.9,29.5c-0.6,3-5.1,7.1-8.1,7.4c-13.4,1.5-26.9,1.8-41.2,2.6
				c-4.2,12-7,25.4-4.3,38.4c1.1,5.1,9.5,8.8,14.7,12.9c2.8,2.2,5.8,4.2,8.9,6.1c1.6,1,3.6,1.8,5.4,2.1c19.7,2.9,39.4,5.7,58.2,8.4
				c1.7-4.8,2.8-9.6,5.1-13.8c2.2-4,0.6-5.4-2.2-7.7c-7.5-6.2-15.1-12.4-21.8-19.3c-4.5-4.7-3.4-11.2,2.5-12.5
				c11.4-2.4,15-11.8,20.5-19.7c3.9-5.6,7.5-11.4,11.1-17.2c6.7-10.7,5.5-21.8,1.7-33c-2.4-7-8.9-6.9-14.5-7.5
				c-4.2-0.5-8.3,0.1-10.8-4.6c-0.5-1-2.9-1.1-4.4-1.5c-10.1-2.6-20.5-4.4-30.2-7.9c-9.2-3.3-12.4-14.2-9.2-27.5
				c3-12.5,6.4-24.9,9.6-37.4c4.5-17,15.2-28.6,30.7-36.5c2.1-1.1,3.7-3.1,5.3-4.9c2-2.4,3.3-5.7,5.7-7.5c5.6-4.3,10.1-8.5,7.8-16.6
				c-0.3-1.2,2.6-4.8,4.1-4.9c12.8-0.7,17-12.1,24.3-19.4c1.1-1.1,0.6-3.7,0.8-5.6c0.7-5.4,0.8-11,2.2-16.2
				c1.3-4.7,4.4-7.8,10.5-6.6c7.4,1.4,16-1.8,21.8,5.8c5.9,7.7,10.3,15.8,7,26.1c-1.6,5-2.1,10.4-4.2,15.1
				c-1.9,4.1-5.3,7.7-8.5,11.2c-3,3.3-4.4,5.9-1.5,10.3c2.2,3.3,4.1,7.8,3.7,11.5c-2,23,6.9,43.5,13.9,64.5
				c1.6,4.8,3.4,9.7,5.7,14.2c3.2,6.3,4.5,11.7-4,14.6c2.5,7.9,7.7,15.4-0.2,22.8c17.9,21.8,29.7,47,40.1,72.9
				c5.3,13.3,4.1,16.1-9.1,21.6c-1.6,0.7-3.4,1.5-4.2,2.8c-5.8,9.4-14.4,7.6-22.8,5.7c-11.6-2.5-23.2-5.2-34.8-7.8
				c-4.8-1.1-6.8-4.2-6.4-9.1c0.8-9.5,1.3-19,1.5-28.4c-5.1,16.8-10.2,33.6-15.3,50.4c-2.4,8,4.3,17.3,13.1,18.1
				c10.1,1,10.1,1,7.2,11.7c33.2-2,65.8-3.9,98.4-5.9c0.1-0.9,0.1-1.8,0.2-2.7c-2.9-1.1-5.8-2.1-8.6-3.4c-2.9-1.3-6.1-2.4-8.5-4.4
				c-3.6-3-9.4-5.9-6.7-11.7c2.4-5.1,7.7-5.2,12.8-3c1.2,0.5,2.8,0.1,5.1,0.1c-1.5-2.8-2.6-4.8-3.7-6.9c-2.4-4.3-0.8-7.7,3.4-8.7
				c9.6-2.4,14.1-10.2,18.9-17.3c6.7-9.9,11.7-20.9,18.6-30.5c4.3-6,10-12.5,16.5-15.4c14.1-6.2,17.9-17.5,20-30.7
				c1.6-9.9,3.4-19.7,4.9-29.5c0.3-2,0.1-4.2-0.3-6.2c-2-8.7-4.1-17.3-6.5-27.1c-1.6,0.2-4.5,0.9-7.5,1.1
				c-14.5,1.1-28.3-1.3-41.1-8.4c-2.5-1.4-4.9-4.3-5.6-7c-3-12-6.2-24-7.6-36.3c-1.1-10.3-0.3-20.9,0.8-31.3
				c2-18.3,16.6-25.4,31.1-31.7c10.9-4.7,22.5-7.9,33.5-12.5c3.5-1.5,5.9-5.5,9.3-7.8c2.5-1.7,5.7-2.4,8.6-3.6
				c0.8,2.4,1.6,4.8,2.7,8.3c1.1-0.6,3.4-1.1,4.7-2.6c7.2-8.1,16.4-12.9,26.5-16.6c6.5-2.4,12.3-6.1,13.8-14
				c-11.1-6.9-15-16.8-11.9-29.5c0.2-0.9,0.6-2.4,0.2-2.7c-9.6-8.3-0.5-17.1-0.4-25.6c0-2.6,5.8-6.3,9.5-7.4
				c4.4-1.3,9.5-0.3,14.8-0.3c1.3,5.6,2.6,10.9,4,16.6c8-1.4,16.1-1.5,21.8,6.4c4.6,6.4,11.2,11.9,10.1,21.1
				c-0.2,1.5,0.2,3.9,1.3,4.7c9.8,7.2,4.7,16.3,2.6,24.4c-0.6,2.4-6.3,5.1-9.5,4.9c-8.1-0.5-9.2,7.2-14.1,10.3
				c-6.4,4-5.3,9.3-3.1,15.9c2.6,8,2.6,16.8,3.7,25.3c0.2,1.9,0.4,3.8,0.6,5.8c3.6-0.4,6.8-1.4,9.8-1.1c14.8,1.5,21.2,10.6,18,25.4
				c-1.4,6.6,1.1,11.4,5.9,15.5c3.5,3,7.4,6.1,3.3,11.5c-0.5,0.7-0.4,2.5,0.1,3.4c3.9,7.3,0.1,13-3.6,18.9c-2.4,3.9-4.6,8-5.9,12.4
				c-3.5,11.5-9.3,16.3-20.8,16.3c-4.6,0-9.3,0-14,0c6.2,17.8,12.7,35,18.1,52.5c2.1,6.7,1.6,14.2,2.1,21.4c0.1,2.2-0.4,4.4-0.5,6.6
				c-0.9,17.4-2.5,34.8-2.5,52.2c0,9.1,2.4,18.3,4.5,27.3c0.5,2.1,3.4,4.1,5.6,5.4c8.9,5.2,18.2,9.7,29,8.8c6.4-0.5,6.4,3.7,6.5,8.8
				H1920V1080z M1064.1,984.8c-8.2-6.7-13.7-16.3-16.5-27.6c-1-3.9-4-7.2-5.7-10.9c-2.6-5.6-7-11.5-6.6-16.9c0.3-3.4,8-6.2,12.4-9.3
				c0.4-0.3,0.7-0.6,0.9-0.7c0.6-4.7,1.6-9.3,1.6-13.9c0.1-14,4.2-28.3-1.3-42c-7.1-17.8-13.4-36.1-22.6-52.8
				c-6.1-11.1-15.7-20.1-15.9-34.5c-8.5,10.4-10,20.4-6.8,31.9c1.2,4.3,1.1,12.7-0.6,13.3c-5.8,2.2-9.6,13-17.2,5.6
				c-3.6,2.7-6.4,5.4-9.8,7.2c-5.2,2.8-7.4,5.4-4.8,12c6.2,15.6,11.8,31.5,11.5,48.7c-0.2,11-0.4,22,0.1,33c0.4,8-1.2,14.1-9.9,15.5
				c0,9.3,0.8,18.2-0.2,26.8c-1.1,9.5,0.1,19.2,5.6,21.5c9,3.7,17.5,8.9,28.1,7.8c8.8-0.9,17.7-0.2,26.6-0.2c9.7,0,19.5,0,28.5,0
				C1062.5,993.7,1063.2,989.7,1064.1,984.8z M1669.1,846.6c-8.8,19.3-16.9,37.4-25.5,55.3c-1.8,3.7-5.1,7.8-8.8,9.4
				c-12.4,5.5-22.2,13.9-30.8,24.2c-7.9,9.4-17,17.7-25.1,26.9c-7.4,8.4-9,20.2-4.7,27.7c5,8.7,14.3,12.7,24.2,11.6
				c16.3-1.8,32.6-3.6,48.9-4.2c19.1-0.7,38.2-0.2,58.9-0.2c-0.2-11.2-0.2-21.5-0.5-31.8c-0.1-4.6-0.8-9.2-1.4-13.8
				c-1.5-12.3-5.3-24.9-4-36.9c1.5-13.8-0.1-25.6-8-36.6C1684.7,867.6,1676.9,857.1,1669.1,846.6z M1288.1,956.6
				c-11.1,9-23.5,14.5-18.8,30.6c1.1,3.7,1.9,6.2,5.8,5.5c4.4-0.9,11.8,3.6,12.7-4.1C1289,978.6,1288.1,968.4,1288.1,956.6z
				 M1455,895.8c7.2-10.6,21.5-17.1,14.5-33.9c-1.9-4.5-2.2-8.9-7.8-11.6c0,6.6,0.8,12.5-0.2,18.2c-1.2,6.7,0.8,15.7-9.6,17.5
				C1452.9,889.1,1453.8,892.1,1455,895.8z M1131.5,803.5c5.5-3.7,9-6.1,12.2-8.3c-4-9.3-7.8-17.9-12.2-28.2
				C1131.5,779.7,1131.5,790.7,1131.5,803.5z M1170.8,828.2c-4.6-7.6-8.4-14.1-12.7-20.4c-0.5-0.7-4.5-0.1-5.6,1.1
				c-1.4,1.5-1.6,4.3-2.1,5.9C1157.2,819.3,1163.4,823.4,1170.8,828.2z M1142.4,815.7c2.1-4.4,4-7.6,5-11c0.3-0.9-2.8-3.7-3-3.6
				c-3.7,2.4-7.2,5.1-10.8,7.8C1136.1,810.8,1138.6,812.7,1142.4,815.7z"/>
		</g>
	</g>
	<g>
		<rect x="-1550.3" class="st0" width="960" height="1079.8"/>
	</g>
</g>
<g>
	<rect x="2035.7" y="47.4" class="st1" width="165.8" height="165.8"/>
</g>
<g>
	<rect x="2035.7" y="263.4" class="st2" width="165.8" height="165.8"/>
</g>
<g>
	<rect x="2035.7" y="479.4" class="st3" width="165.8" height="165.8"/>
</g>
<g>
	<rect x="2035.7" y="695.4" class="st0" width="165.8" height="165.8"/>
</g>
<g>
	<rect x="2035.7" y="911.4" class="st4" width="165.8" height="165.8"/>
</g>
</svg>
