<?xml version="1.0" encoding="utf-8"?>
<!-- Generator: Adobe Illustrator 27.4.1, SVG Export Plug-In . SVG Version: 6.00 Build 0)  -->
<svg version="1.1" id="Capa_1" xmlns="http://www.w3.org/2000/svg" xmlns:xlink="http://www.w3.org/1999/xlink" x="0px" y="0px"
	 viewBox="0 0 776.4 1036.3" style="enable-background:new 0 0 776.4 1036.3;" xml:space="preserve">
<style type="text/css">
	.st0{fill:#BD5626;}
	.st1{fill:#E2400E;}
	.st2{fill:#F03912;}
	.st3{fill:none;stroke:#F03912;stroke-width:4.27;stroke-miterlimit:10;}
	.st4{fill-rule:evenodd;clip-rule:evenodd;stroke:#F03912;stroke-width:7.69;stroke-miterlimit:10;}
	.st5{fill:#FFFFFF;stroke:#E2400E;stroke-width:7;stroke-miterlimit:10;}
</style>
<g>
	<g>
		<path class="st0" d="M329.3,127.1c0.4,0.6,0.8,1.1,1.1,1.7h0.1C330.6,128.8,329.6,127.4,329.3,127.1L329.3,127.1z"/>
	</g>
	<g>
		<path class="st0" d="M331.4,131c0.2,1.7-0.1,4.1,0.9,5.4C331.4,134.7,331.8,132.8,331.4,131L331.4,131z"/>
	</g>
	<g>
		<path class="st0" d="M108.3,733.4c0,0,0,0.1,0.1,0.2C108.4,733.5,108.3,733.4,108.3,733.4L108.3,733.4z"/>
	</g>
	<g>
		<path class="st0" d="M108.4,733.6c0.1,0.3,0.3,0.8,0.6,1.3C108.9,734.5,108.6,733.9,108.4,733.6L108.4,733.6z"/>
	</g>
	<g>
		<path class="st0" d="M115.5,773.9c0.2,1.2,0.5,2.3,0.7,3.1C116,776,115.7,774.9,115.5,773.9L115.5,773.9z"/>
	</g>
	<g>
		<path class="st0" d="M173.5,375.2c-0.6,1.8-3.1,6-2.9,6c0.1,0,0.6-0.7,1.9-2.6l0,0C172.1,378.7,173.5,375.6,173.5,375.2
			L173.5,375.2z"/>
	</g>
	<g>
		<path class="st0" d="M7.9,587.8c-0.1,0-1,0.9-3,3.1C6.9,589,8,587.8,7.9,587.8L7.9,587.8z M4.9,590.9c-0.2,0.2-0.3,0.3-0.5,0.5
			s-0.4,0.5-0.7,0.8C4.2,591.7,4.6,591.3,4.9,590.9L4.9,590.9z M3.7,592.2c-0.1,0.1-0.2,0.2-0.3,0.4c-0.4,0.6-0.6,1-0.7,1.1
			C2.8,593.5,3.3,592.8,3.7,592.2L3.7,592.2z M2.7,593.7C2.6,593.8,2.6,593.8,2.7,593.7C2.6,593.9,2.6,593.8,2.7,593.7L2.7,593.7z"
			/>
	</g>
	<g>
		<path class="st0" d="M5,590.7c0,0-2.6,2.9-2.8,4c0.7-1.1,1.3-2.2,2.2-3.2C4.9,591,5,590.7,5,590.7L5,590.7z"/>
	</g>
	<g>
		<path class="st0" d="M129.9,816.2c0.5,1.3,1.2,2.9,1.9,4.3C131.3,819.4,130.7,818,129.9,816.2L129.9,816.2z"/>
	</g>
	<g>
		<path class="st0" d="M83.5,697.4c0,0-0.1,0-0.2,0.1c-0.6,0.2-1.2,0.3-1.8,0.5C81.8,698,83.6,697.4,83.5,697.4L83.5,697.4z"/>
	</g>
	<g>
		<path class="st0" d="M289.9,146.2c-0.1,0,1.3,0.2,1.7,0.3c-0.4-0.1-0.8-0.2-1.1-0.2C290.1,146.3,290,146.2,289.9,146.2
			L289.9,146.2z"/>
	</g>
	<g>
		<path class="st0" d="M330.5,127.8c0.2,0.3,0.4,0.7,0.6,1C331,128.5,330.7,128.2,330.5,127.8L330.5,127.8z"/>
	</g>
	<g>
		<path class="st0" d="M325.3,122.4c0.3,0.3,0.7,0.6,1,0.9C326,123,325.6,122.7,325.3,122.4L325.3,122.4z"/>
	</g>
	<g>
		<path class="st0" d="M326.3,123.3c1.3,1.4,2.7,2.5,4.1,4.4C329.3,126.1,327.8,124.7,326.3,123.3L326.3,123.3z"/>
	</g>
	<g>
		<path class="st0" d="M330.4,127.7L330.4,127.7L330.4,127.7L330.4,127.7z M330.4,127.7C330.4,127.8,330.5,127.8,330.4,127.7
			C330.5,127.8,330.4,127.8,330.4,127.7L330.4,127.7z"/>
	</g>
	<g>
		<path class="st0" d="M83.7,715.7c1.2,0.8,2.8,1.8,4,2.5C86.4,717.3,85.1,716.5,83.7,715.7L83.7,715.7z"/>
	</g>
	<g>
		<path class="st0" d="M737.1,504.1c0.2,0.3,0.4,0.6,0.6,0.9c0.1,0.2,0.2,0.3,0.2,0.3C737.9,505.2,737.7,504.9,737.1,504.1
			L737.1,504.1z"/>
	</g>
	<g>
		<path class="st0" d="M726.2,751.7c0,0.3,0,0.7,0,1C726.2,752.3,726.2,752,726.2,751.7L726.2,751.7z"/>
	</g>
	<g>
		<path class="st0" d="M450.4,32.9c0.4,1,0.8,2.1,1.2,3.1C451.3,35.2,450.9,34.2,450.4,32.9L450.4,32.9z"/>
	</g>
	<g>
		<path class="st0" d="M208.4,915.6c0.3,0.2,0.5,0.5,0.8,0.6C208.8,915.9,208.6,915.7,208.4,915.6L208.4,915.6z"/>
	</g>
	<g>
		<path class="st1" d="M422,4.1c3.9,0,8.2,1.7,12.9,4.9c25.9,33.6,13.9,51.5,0.1,72.2c-9,13.5-18.4,27.5-17.8,46.5v1.1l0.5,1
			c7.9,16,21.7,25.2,37.8,25.2c6,0,12.2-1.3,18.4-3.8c12.6,1.4,24.1,6.9,35.2,12.3c8.2,3.9,16.7,8,25.5,10.4c1.4,1.6,1.4,2.6,1.1,4
			c-0.3,0.6-0.6,1.4-0.7,2.3c-0.1,0.4-0.3,0.8-0.4,1.2c-3,8.9-7.5,22.3,13.6,49.9c11.5,18.6,17.2,31.2,18.6,40.7
			c1.3,8.5-0.8,14.3-4.1,23.1c-4.7,13.1-11.2,30.9-9.5,68l0.1,3.1l2.8,1.3c9.4,4.1,21.3,9.2,34,14.6c29.2,12.4,65.2,27.7,81.2,36.8
			c-2,20.9,20.9,43.9,41.3,64.3c7.9,7.9,15.3,15.3,20.3,21.7c6.3,8,6.2,11.1,5.9,12.2c-0.5,1.6-3.5,3.1-8,4l-6.4,1.4l3,5.8
			c1.5,2.9,1.2,3.6-3.3,7.2c-3.4,2.8-8,6.5-8.1,12.9c-1.9,10.5-3.4,24.2-4.9,38.7c-1.6,14.6-3.2,29.6-5.4,44.3l-0.8,5.3l5.4,0.4
			c10.8,0.8,11.4,6.5,10.5,22.3c-0.3,5.2-0.6,10.6,0,16l0.3,2.8l2.5,1.2c6.1,3,13.9,4,21.5,4.9c9.9,1.3,20.1,2.6,24.6,8.1
			c-0.9,6.8-2.2,15.3-3.2,19.6c-3.1-1.8-7.9-4.4-15-4.4c-5.4,0-11.5,1.5-17.9,4.6l-0.6,0.3l-0.5,0.4c-6.9,5.9-6.8,13.7-6.7,20.7
			c0.1,5.9,0.1,10.9-3.5,15.1l-1.2,1.4v1.9c0.1,10.8,8.3,17.4,15.5,23.2c8.9,7.2,11.9,10.4,8.9,16.2l-0.6,1.1v1.2
			c0,3.2-2.7,5.8-9,8.8l-7,3.4l6,5c2.5,2.1,5.5,3.6,8.5,5c1.6,0.8,4,2,5.2,2.9c-0.3,0.3-0.7,0.8-1.4,1.3l-0.2,0.1l-0.2,0.2
			c-21.6,21-21,29.3-14.6,42.1c2.8,5.7,6.1,12.2,5,24.1c-1.8,8.4-2.9,17.6-4,27.4c-1.7,15-3.5,30.5-8.2,43.4
			c-8.5,17.1-14.2,19.3-18.3,19.3c-4.6,0-10.3-2.8-17.6-6.4c-12-6-28.4-14.2-51.9-14.2c-6.8,0-14,0.7-21.3,2.1l-0.3,0.1l-0.3,0.1
			c-21.5,6.9-31.2,27.7-39.7,46.1c-4.4,9.6-8.7,18.8-14,24.5c-95.4-60.5-178.4-85.2-285.6-85.2c-4,0-8.1,0-12.2,0.1
			c-4.4-2.5-8.6-4.8-12.7-7.1c-43.1-24.1-66.8-37.4-84.4-58.4c-18.4-22-29.8-52.7-45.6-105.1c-0.7-3.9-1.2-8-1.6-12
			c-1-8.5-2-17.5-5.5-25.7l1-0.3c-0.1-0.4-0.2-0.8-0.4-1.1l-1.1,0.5c-4.3-9.4-12-17.7-26.8-23.1l0,0c2.7-2.3,6.4-5.5,6-10.2
			c-0.3-3-2.3-5.7-5.9-7.8l-1.6-0.9l-1.8,0.3c-1.5,0.3-2.9,0.4-4,0.4c-3.8,0-4.8-1.4-7.4-4.7c-2.3-3.1-5.3-6.9-11-9.6l-2.6-1.3
			l-2.4,1.7c-0.9,0.6-1.7,1-2.3,1c-0.8,0-1.7-0.7-2.2-1.4c-3.6-3.9-5.8-13.1-5.4-21.6c0.1-0.3,0.1-0.5,0.2-0.8
			c0-0.3,0.1-0.7,0.1-1.2c0.1-0.9,0.2-2.1,0.4-3.5l-0.4-0.1c2.7-14.3,1.5-24.8-3.7-31.9c-6.6-9.2-17.7-10.5-26.6-11.6
			c-3.7-0.4-9.3-1.1-10.2-2.4c-0.1-0.2-0.2-0.8-0.1-1.9l0.1-0.5v-0.5c-0.2-4.8,3.2-8.2,8.7-13.3c6.4-5.9,14.2-13.2,10.9-25.2v-0.1
			c-0.1-2.8-2.2-4.4-4.3-6c-3.4-2.5-6.6-5.3-6.8-8.7c5.1-9.2,11.7-14.8,18.7-20.8c8.8-7.5,17.9-15.3,24.7-30.3
			c3.6-4,4.8-8.5,5.6-11.9c1.1-4.3,1.4-4.3,2.4-4.5l2.7-0.5l1.1-2.5c3-7.1-2.1-12-4.8-14.6l0,0c-1.8-3-0.3-6.5,0.2-7.5
			c1.6-3,4.3-4.9,7-4.9c0.3,0,0.6,0,1,0.1l4.9,0.8l0.8-4.9c1.4-8.3,5.2-10.9,10.1-14.2c2.7-1.8,5.5-3.8,7.9-6.7l0.1-0.2l0.1-0.2
			c7.6-11.4,11.3-12.2,12.2-12.2c1.3,0,3.1,1.6,5.1,3.2c3,2.6,6.8,5.9,12.2,5.9c6.4,0,12.8-4.6,20.5-15c3.8,0.6,6.5,1,8.6,1l2.2,1
			l1,0.5h1.1c2,0,4.3-1.2,5-4c0.1-0.3,0.1-0.6,0.2-1c0.8-3.4,0.6-6.8,0.5-9.8c-0.1-1.7-0.2-3.4-0.1-4.8c0-0.4,0.1-0.8,0.1-1.1l0,0
			c4.5-1.1,8.9-6.1,16.7-15.4c6.9-8.3,15.6-18.5,23.7-23.3c1.8-0.8,3.9-1.5,6.1-2.4c10-3.7,23.7-8.8,30-20.6c0.9-1.5,4.7-8.1,5.7-12
			l0,0l0,0c1.5-6.1,0.5-11.4-0.2-15.7c-1-5.5-1.1-7.2,0.9-8.9c2.6-0.9,4.7-2.9,6.2-5.1c1.6-0.4,3.5-1.7,3.8-5.6
			c0.1-0.7,0.1-1.8,0.2-2.9c0.2-2.8,0.4-6.5,0.7-8.9c1.2-2.5,3.1-5.5,5.2-8.6c6.2-9.6,13.2-20.4,6.3-28.6l-1.3-1.5l-2-0.2
			c-4.7-0.6-7.7-2-9.1-4.2c-3.1-5.1,1.1-15.8,3.8-22.9c1.2-3.1,2.2-5.7,2.8-8l0.1-0.4v-0.4c3.4-36.2,14.9-41.2,26.8-41.2
			c8.7,0,19.2,2.9,31.4,6.2c3.5,1,7.1,2,10.8,2.9v0.1c-0.5,0-0.9-0.1-1-0.1c0.3,0.1,1.3,0.4,2.1,0.6c2.6,0.7,2.8,0.8,3.6,0.8v-0.2
			c6.6,1.6,13.5,3,20.6,4l5.7,0.8l-0.1-5.8c-0.2-15.9-9-21-17.5-25.8c-5.5-3.2-11.6-6.6-17-13.7l1.5-1.5c-0.3-0.3-0.7-0.7-1.1-1.1
			l-1.3,1.4c-1.8-2.5-3.5-5.4-5.2-8.9c0.2,0,0.3,0,0.5,0c4.9,0,12.9,2.6,16.8,3.9c0.4,0.1,0.7,0.2,1,0.3c7.7,3,10.3,3.6,12.2,3.6
			c0.2,0,0.4,0,0.6,0l0.5,0.6h2.4h3v-0.1h0.1l0.1-0.2h0.7l1.2-3.2c0.1-0.3,0.2-0.6,0.3-0.9l0.5-0.8l-0.1-0.2l0.1-0.2l-0.4-0.6
			c-0.3-1.7-1.6-2.9-2.2-3.5l-1.2-2.3c0.1-0.5,0.2-1,0.4-1.5c0.7-1.3,2.1-2.8,3.3-4.3c3.6-4.1,9.5-10.9,3.9-18.8l-0.7-1l-1.1-0.6
			c-3-1.5-4.5-3.6-4.8-6.8c-0.5-6.4,4.3-15.1,9.3-19.6c8.8-0.6,15-11.1,22-23.3C400.9,19.8,410,4.1,422,4.1 M422-0.9
			c-26.1,0-37.2,52.9-52,52.9c-0.3,0-0.6,0-1-0.1c-9.7,7.1-20,28.4-5,35.9c4.8,6.8-4.8,12.2-7.8,18.3c-0.4,1.2-0.7,2.7-0.9,4.2
			c0.2,1.3,0.7,2.7,1.9,4.1c0.5,0.6,2,1.8,1.7,1.8c-0.1,0-0.4-0.1-0.8-0.4c-0.8-0.3-1.4-0.7-1.9-1.3c0.1,0.8-0.1,1.4-1.2,1.4
			c-1.5,0-4.6-1-10.6-3.3c-3.7-1.2-13.2-4.5-19.5-4.5c-4.1,0-6.9,1.4-5.6,5.9c14.9,33.8,40.3,22.8,40.7,48.8
			c-26.7-3.5-50.4-14.4-68.1-14.4c-16.9,0-28.4,9.9-31.7,45.8c-2.7,10.6-19.7,38.2,6.7,41.3c6.4,7.6-7.9,22.4-12.5,32.5
			c-0.8,4.7-0.9,14.1-1.2,14.1c-0.1,0-0.2-1-0.3-3.5c-0.2,1.5-2.7,8.2-6.7,8.8c-9.3,6.6-0.3,15.8-3.3,28c-0.8,3-4.3,9.3-5.2,10.8
			c-6.7,12.8-24.4,16.8-34.1,21c-16.8,9.6-33.4,38.3-39.9,38.3c-0.8,0-1.4-0.4-1.9-1.2c1.1,0.1,1.7,0.2,1.7,0.2s-0.6-0.1-1.8-0.6
			c0.9,0.1,1.6,0.3,1.8,0.3s-0.3-0.1-2-0.6c-5.8,15.1,2,20.9-5.5,20.9c-2.2,0-5.7-0.5-11.3-1.4c-8.3,11.8-13.9,15.4-18.2,15.4
			c-6.9,0-10.7-9.2-17.2-9.2c-4,0-9,3.4-16.4,14.5c-5.7,7.1-16.4,7.7-19,23.2c-0.6-0.1-1.2-0.1-1.8-0.1c-9.5,0-16.8,12.5-11.1,20.6
			c2.7,2.7,5.8,5.3,4.1,9.5c-8.1,1.4-4.3,11.3-11.4,18.5c-12,26.9-32.2,29.7-44.2,52.5c-1,10.3,12.5,15.2,11,16.5
			c5.9,17.9-20.2,22.2-19.5,38.4c-3.6,21.3,51.5-7.2,40.5,48.3c-0.1,1.9-0.2,3.1-0.2,3.9c0.1-1.4,0.3-2.7,0.6-4
			c-0.3,2.8-0.5,4.8-0.6,4.8c0,0,0-0.3,0-0.8c-1.2,13.4,3.9,30,12.5,30c1.6,0,3.3-0.6,5.2-1.9c10.7,5.2,9.5,14.8,20.6,14.8
			c1.4,0,3.1-0.2,4.9-0.5c12.3,7.1-13,12.4-1.4,17.6c33.4,10.8,29.1,36.2,33.3,59c35.3,117.1,48,119.2,146.3,174.5
			c4.5-0.1,9-0.1,13.5-0.1c117.6,0,200.9,31.9,286.1,86.5c18.8-15,22.4-61.9,54.6-72.1c7.4-1.4,14.2-2,20.4-2
			c36.6,0,54.5,20.6,69.5,20.6c7.7,0,14.7-5.5,22.9-22.3c8.1-22,7.9-50.9,12.6-72c3.2-34.9-26.8-29.6,8.1-63.4
			c10.9-8.9-5.2-11.1-12.2-16.9c5.4-2.6,11.8-6.4,11.8-13.3c9.5-18.4-23.7-23.4-23.8-41.8c9.7-11.3-0.5-26.6,9.6-35.2
			c6.4-3.1,11.6-4.1,15.8-4.1c9.6,0,14,5.7,16.7,5.7s3.8-5.5,6.7-27.1c-8.4-14.1-35.1-9.4-49.2-16.2c-2-18.3,7.6-40.9-15.1-42.7
			c4.7-30.2,6.7-62.8,10.4-83.3c-0.3-9.9,17.1-10.8,10.8-22.9c48.5-10.2-65-69.8-55.1-109.7c-20.1-12.4-85.5-38.7-118.6-53.4
			c-4-86.3,37.3-64.3-5.9-134.4c-22.1-28.8-14.4-40.1-12.1-48.5c-0.1,0.3-0.2,0.4-0.3,0.4c0,0,0.1-0.3,0.4-0.9
			c0.9-3.5,0.7-6.5-3.2-10.2c-20.9-5.1-39.8-21-64-23.2c-6.1,2.7-12,3.9-17.6,3.9c-14.5,0-26.5-8.5-33.3-22.4
			c-1.5-45.7,62.4-62.8,16.2-122.1C432.3,1,426.9-0.9,422-0.9L422-0.9z M358.4,116.4L358.4,116.4L358.4,116.4
			C358.4,116.4,358.5,116.4,358.4,116.4C358.5,116.4,358.5,116.4,358.4,116.4L358.4,116.4L358.4,116.4z M358.5,116.5L358.5,116.5
			L358.5,116.5L358.5,116.5L358.5,116.5z M328.3,125.2c-0.3-0.3-0.5-0.5-0.8-0.8C327.8,124.6,328.1,124.9,328.3,125.2L328.3,125.2z
			 M338.8,158.9c-0.2,0-4.5-1.2-4.7-1.2C334.3,157.7,338.6,158.9,338.8,158.9L338.8,158.9z M160.2,389.8c0-0.9,1.1-3.9,1.1-3.9
			s-0.1,0.3-0.3,0.9C160.8,387.6,160.3,389.6,160.2,389.8L160.2,389.8z M160.4,389.7c0-0.1,0-0.1,0-0.2
			C160.4,389.6,160.4,389.6,160.4,389.7c-0.1,0.4-0.1,0.9-0.1,1.4c-0.3,4.7,0.9,9.6-0.3,14.1c-0.1,0.6-0.1,0.9-0.2,0.9l0,0
			c0.1-0.3,0.2-0.6,0.3-0.9c0.2-2.5,0-9.9,0.3-14.1C160.3,390.6,160.4,390.1,160.4,389.7L160.4,389.7z M110.3,736.1L110.3,736.1
			C110.3,736,110.3,736,110.3,736.1L110.3,736.1z M383.6,37.1c0,0-0.5,0.8-1,1.9l0,0c0.1,0,0.4-0.5,0.7-1.3
			C383.5,37.3,383.6,37.1,383.6,37.1L383.6,37.1z M357.1,103.5c0,0-0.3,0.6-1.2,2.2c-1.2,1.8-1,3.8-0.6,5.5c0-0.3,0-0.6,0-0.8
			c-0.2-1.5,0.2-2.8,0.9-4.2C356.6,104.6,357.1,103.5,357.1,103.5L357.1,103.5z M355.3,111.2c0,1.3,0.2,2.5,0.9,3.4
			C356.1,113.7,355.6,112.5,355.3,111.2L355.3,111.2z M318.3,111.5c0.1,0.3,0.2,0.6,0.4,0.9C318.5,112.1,318.4,111.8,318.3,111.5
			L318.3,111.5z M318.7,112.4c0,0.1,0.1,0.1,0.1,0.2l0,0C318.7,112.5,318.7,112.4,318.7,112.4L318.7,112.4z M318.7,112.4
			L318.7,112.4c0,0.1,0,0.1,0,0.2C318.7,112.6,318.7,112.5,318.7,112.4L318.7,112.4z M318.7,112.6c0,0.2,0.1,0.4,0.2,0.6
			c0-0.1-0.1-0.3-0.1-0.5C318.8,112.7,318.7,112.6,318.7,112.6L318.7,112.6z M318.7,112.6C318.8,112.6,318.8,112.7,318.7,112.6
			c0.2,0.5,0.3,1,0.4,1.3c0.2,0.5,0.5,1.1,0.7,1.6c-0.2-0.5-0.4-1.1-0.6-1.5C319.1,113.5,318.9,113.1,318.7,112.6L318.7,112.6z
			 M318.9,113.2c0.3,1.4,0.5,1.9,0.5,1.9s-0.1-0.5-0.3-1.1C319.1,113.7,319,113.4,318.9,113.2L318.9,113.2z M319.9,115.5
			c0.1,0.2,0.1,0.3,0.2,0.5s0.2,0.3,0.3,0.5C320.2,116.2,320.1,115.9,319.9,115.5L319.9,115.5z M320.4,116.5
			c0.4,0.8,0.7,1.3,0.7,1.3S320.9,117.4,320.4,116.5L320.4,116.5z M540.8,172.9c0.6,1.4,0.8,2.3,0.8,3
			C541.7,174.8,541.6,173.6,540.8,172.9L540.8,172.9z M541.6,176c-0.1,0.6-0.2,1.2-0.4,1.7C541.4,177.1,541.6,176.6,541.6,176
			L541.6,176z M541.1,177.7c-0.1,0.3-0.3,0.6-0.4,1c-0.1,0.3-0.3,0.5-0.4,0.7c0,0.2-0.1,0.3-0.1,0.5
			C540.5,179.4,540.8,178.6,541.1,177.7L541.1,177.7z M541.3,208.7c0,0,0.4,1,1.7,3.8c1.4,2.6,2.8,5.2,4.1,7.6
			C545.9,217.6,541.4,208.7,541.3,208.7L541.3,208.7z M252.8,278.3c0,0.1,0,0.2,0,0.3C252.9,278.4,252.8,278.3,252.8,278.3
			L252.8,278.3z M239.1,322.6c-1.6,2.9-2.8,5-2.8,5s0.7-1,2.2-3.4C238.7,323.6,238.9,323.1,239.1,322.6L239.1,322.6z M239.3,322.9
			c-0.3,0.4-0.5,0.9-0.8,1.2c-0.1,0.2-0.1,0.4-0.2,0.5C238.6,324.2,238.9,323.6,239.3,322.9L239.3,322.9z M238.3,324.7
			c-0.7,1.3-1,1.8-0.9,1.8c0,0,0.1-0.1,0.2-0.3C237.8,325.7,238.1,325.2,238.3,324.7L238.3,324.7z M774.4,689.1c0,0,0,0.1,0.1,0.5
			c0.1,0.3,0.2,0.7,0.3,0.7c0,0,0-0.1-0.1-0.4C774.7,689.6,774.5,689.1,774.4,689.1L774.4,689.1z M774.7,690.1
			c0,0.1,0.1,0.3,0.1,0.4C774.8,690.4,774.7,690.2,774.7,690.1L774.7,690.1z"/>
	</g>
	<g>
		<path class="st0" d="M207.8,915.1c0,0.1,0.2,0.2,0.6,0.5C208.2,915.4,208,915.3,207.8,915.1L207.8,915.1z"/>
	</g>
	<g>
		<path class="st0" d="M748.8,798.8c0,0-0.4,0.7-0.7,1.1C748.4,799.5,748.6,799.2,748.8,798.8C748.7,798.8,748.8,798.8,748.8,798.8
			L748.8,798.8z M748,799.9c-0.1,0.1-0.1,0.2-0.2,0.3C747.8,800.2,747.9,800,748,799.9L748,799.9z"/>
	</g>
	<g>
		<path class="st0" d="M317.8,109.9c0.3,0.8,0.6,1.6,0.9,2.5C318.4,111.6,318.2,110.7,317.8,109.9L317.8,109.9z M318.7,112.4
			L318.7,112.4L318.7,112.4L318.7,112.4z"/>
	</g>
	<g>
		<path class="st0" d="M319.5,109.4c-0.5,0.1-1.1,0.3-1.7,0.4c0.1,0,0.1,0,0.2,0C318.5,109.8,319.1,109.5,319.5,109.4L319.5,109.4z"
			/>
	</g>
	<g>
		<path class="st0" d="M726.1,752.6c0,0.3,0,0.6,0.1,0.9C726.2,753.2,726.1,752.9,726.1,752.6L726.1,752.6z"/>
	</g>
	<g>
		<path class="st0" d="M1.8,595.7L1.8,595.7L1.8,595.7L1.8,595.7z M1.8,595.7c-0.1,0.1-0.1,0.1-0.1,0.2
			C1.7,595.8,1.8,595.7,1.8,595.7L1.8,595.7z"/>
	</g>
	<g>
		<path class="st0" d="M1.7,595.9c-0.2,0.3-0.3,0.7-0.3,1C1.5,596.6,1.6,596.2,1.7,595.9L1.7,595.9z"/>
	</g>
	<g>
		<path class="st0" d="M2.2,594.7c-0.2,0.3-0.3,0.7-0.4,1C1.9,595.4,2.1,595,2.2,594.7L2.2,594.7z"/>
	</g>
	<g>
		<path class="st0" d="M264.6,176.9c0,0-0.1,0.2-0.2,0.5l0,0h0.1C264.6,177.1,264.6,176.9,264.6,176.9L264.6,176.9z"/>
	</g>
	<g>
		<path class="st0" d="M317.6,109.6c0.2,0.6,0.4,1.2,0.7,1.9C318.1,110.9,317.9,110.1,317.6,109.6L317.6,109.6z M318.3,111.5
			L318.3,111.5L318.3,111.5L318.3,111.5z"/>
	</g>
	<g>
		<path class="st0" d="M331.2,156.7L331.2,156.7L331.2,156.7L331.2,156.7z"/>
	</g>
	<g>
		<path class="st0" d="M331.2,156.7l11.4,3C338,158.2,334.5,157.4,331.2,156.7L331.2,156.7z"/>
	</g>
	<g>
		<path class="st0" d="M330.6,129c0.3,0.7,0.6,1.4,0.8,2C331.2,130.1,330.8,129.2,330.6,129L330.6,129z"/>
	</g>
	<g>
		<path class="st0" d="M319.3,109.1c-0.3,0-1,0.4-1.5,0.4C318.3,109.5,319,109.1,319.3,109.1L319.3,109.1z"/>
	</g>
	<g>
		<path class="st0" d="M563,309.3c-0.3,0.7-0.7,1.5-1.1,2.4C562.4,310.7,562.7,309.9,563,309.3L563,309.3z"/>
	</g>
	<g>
		<path class="st0" d="M344.4,112.6c0.9,0.3,2.2,0.7,4,1.2C347.1,113.4,345.7,113,344.4,112.6L344.4,112.6z"/>
	</g>
	<g>
		<path class="st0" d="M291.5,146.2c-0.2,0,0.8,0.2,0.9,0.2c0,0,0,0-0.1,0c0.2,0,0.3,0,0.3,0C292.7,146.4,291.7,146.2,291.5,146.2
			c0.1,0,0.1,0,0.2,0C291.6,146.2,291.5,146.2,291.5,146.2L291.5,146.2z"/>
	</g>
	<g>
		<path class="st0" d="M288.9,145.9c-0.1,0-0.1,0-0.2,0C288.8,145.9,288.9,145.9,288.9,145.9C289,145.9,288.9,145.9,288.9,145.9
			L288.9,145.9z M289.1,145.9C289.1,145.9,289,145.9,289.1,145.9c0.6,0,1.6,0.2,2.3,0.3C290.7,146,289.9,145.9,289.1,145.9
			L289.1,145.9z"/>
	</g>
	<g>
		<path class="st0" d="M171.5,381c0,0.1-0.1,0.2-0.2,0.3C171.4,381.2,171.5,381.1,171.5,381L171.5,381z"/>
	</g>
	<g>
		<path class="st0" d="M20.5,564.1c0,0.1,0,0.1,0.1,0.1C20.6,564.2,20.5,564.1,20.5,564.1L20.5,564.1z"/>
	</g>
	<g>
		<path class="st0" d="M130.5,815.9c0.6,1.4,1.3,2.9,1.9,4.3C132,819.1,131.3,817.7,130.5,815.9L130.5,815.9z"/>
	</g>
	<g>
		<path class="st0" d="M266.3,246.3c-0.1,0.2-0.1,0.4-0.2,0.7C266.2,246.8,266.2,246.5,266.3,246.3L266.3,246.3z"/>
	</g>
	<g>
		<path class="st0" d="M111.9,747.9c0,0.1,0,0.3,0.1,0.4L111.9,747.9L111.9,747.9z"/>
	</g>
</g>
<g>
	<path class="st2" d="M269.6,424.8c4.6,0,7,0.4,8.8,1.4c2.5,1.3,4.2,4,8.2,10.1l21,34c2.8,4.1,4.3,5.8,5,5.8c0.9,0,1.1-0.8,1.5-2.4
		c0.4-1.7,2.5-15.9,2.5-21.9c0-17.7-7.4-15.9-7.4-21.7c0-3.3,1.6-5.8,6.2-5.8c3.7,0,9.3,0.4,12.3,0.4c3.7,0,8.3-0.4,11.5-0.4
		c3.4,0,4.6,1.7,4.6,4c0,7.4-6.5,4.4-9.5,18.1c-0.7,3.2-2.2,12.5-3,18.9c-5.2,37.8-3.6,35.3-5.5,48.5c-0.8,5.7-6.3,10.2-12.2,10.2
		c-1.8,0-4.8-1.7-6.9-5l-31.2-51.3c-1.4-2.1-2.2-3-2.7-3c-0.9,0-1.6,1.3-2,2.7c-0.6,2.3-3.1,21.1-3.1,26.3c0,19.8,7.4,17.9,7.4,23.8
		c0,3.1-1.6,5.7-6.3,5.7c-4.3,0-9.2-0.4-12.2-0.4c-3.6,0-8.7,0.4-12.9,0.4c-3.3,0-4.7-1.7-4.7-4c0-7.2,7.9-4.5,10.9-18
		c0.7-3.4,2.4-13.1,4.8-30.2c1.9-13.8,3-19.9,3-24.7c0-10.7-5.4-11.2-5.4-16.2c0-3.2,1.6-5.8,6.2-5.8
		C261.4,424.4,265.6,424.8,269.6,424.8L269.6,424.8z"/>
	<path class="st2" d="M379.2,452c0,7.2-10.6,33.8-10.6,47.2c0,5.5,1.9,7.4,4,7.4c3,0,4.2-4,6.2-4c0.9,0,1.8,0.6,1.8,3.1
		c0,6.9-5.9,18.6-19.6,18.6c-10.5,0-17.2-7.9-17.2-19.3c0-11.4,6.8-27.8,6.8-33.6c0-2.6-1.2-4.6-2.7-5.6c-1.2-0.8-2.7-1.9-2.7-3.8
		c0-5,4.6-7.1,11.9-9.6c8.6-3,15.1-4.5,18-4.5C377.5,447.9,379.2,449.1,379.2,452L379.2,452z M384.4,426.8c0,9.2-9.3,16.2-18.2,16.2
		c-7.4,0-10.7-4.6-10.7-10c0-8.4,8.2-17,17.7-17C380,416,384.4,420.6,384.4,426.8z"/>
	<path class="st2" d="M466.5,421.1c0,7.5-12.4,59.5-12.4,79.7c0,3.7,1.2,5.8,3.1,5.8c3,0,4-4,6-4c0.9,0,1.8,0.6,1.8,3.1
		c0,6.9-7.3,18.6-20.6,18.6c-7.2,0-11.8-5.3-13.1-9.9c-0.4-1.4-0.7-2.5-1.4-2.5c-0.6,0-1.2,0.6-2.2,1.8
		c-5.3,5.8-11.3,10.7-20.8,10.7c-12.6,0-21.1-9.9-21.1-27.8c0-29.4,17.7-48.6,35.8-48.6c9.2,0,12.7,6.2,13.6,6.2
		c0.7,0,1.4-1.1,1.8-3.5c0.4-1.7,1.4-7.5,1.4-9.1c0-4.2-1.8-6-3.3-7c-1.2-0.9-2.4-1.9-2.4-3.6c0-4.3,3.2-6.1,10.5-9
		c7.2-2.9,15.4-5,18.8-5C464.6,416.9,466.5,418.1,466.5,421.1L466.5,421.1z M412.5,492.1c0,10.3,3.2,14.7,8,14.7
		c6.6,0,13.3-12.3,13.3-31.2c0-10.3-3.4-14.1-7-14.1C419.6,461.5,412.5,475.3,412.5,492.1z"/>
</g>
<g>
	<path class="st2" d="M214,535.5c0,2.3-3.5,1.7-3.9,6.2c-0.1,1.1-0.2,10.1-0.2,17.4c0,7.9,0.1,18,0.4,19.8c0.5,3.3,3.9,2.9,3.9,4.9
		c0,0.8-0.6,1.5-2.4,1.5c-1.4,0-3.8-0.2-5.6-0.2c-1.9,0-4.3,0.2-5.8,0.2c-1.8,0-2.4-0.7-2.4-1.5c0-2,3.5-1.7,3.9-4.9
		c0.2-1.6,0.3-14.4,0.3-19.8c0-3.9,0-16.1-0.1-17.4c-0.3-4.4-3.9-3.9-3.9-6.2c0-0.8,0.4-1.7,2.3-1.7c1.4,0,3.9,0.2,5.7,0.2
		s4.3-0.2,5.6-0.2C213.5,533.8,214,534.6,214,535.5z"/>
	<path class="st2" d="M256.8,578.1c0,1.3,0.6,2.6,1.8,3.3c1.4,0.8,2.5,1,2.5,2.2c0,1-0.6,1.6-2.5,1.6c-1.5,0-2.4-0.2-4.4-0.2
		c-2.1,0-3.1,0.2-4.5,0.2s-1.8-0.7-1.8-1.5c0-0.9,0.6-2.1,0.8-2.7c0.7-2.2,1.7-9.4,1.7-17.4s-3.3-11.7-8.5-11.7c-4.9,0-10,5-10,8.5
		v16.9c0,2.3,0.6,3.3,1.7,4.1s2.3,1,2.3,2.3c0,0.9-0.5,1.6-2.4,1.6s-3.2-0.2-5.1-0.2s-3.4,0.2-5.6,0.2c-1.7,0-2.2-0.7-2.2-1.5
		c0-1.2,1.2-1.7,2-2.2c1.8-1.3,2.1-2.7,2.1-4.5V556c0-1.7-1.1-2.3-2.6-2.8c-0.8-0.3-1.4-0.8-1.4-1.5c0-1.5,1.6-1.7,3.6-2.6
		c2.6-1.1,3.9-1.9,5.1-1.9c0.9,0,1.5,0.4,1.8,1.8c0.4,2,0.5,4.3,1.2,4.3s5.5-6.5,13-6.5s12.4,5,12.4,15.3
		C257.9,569.4,256.8,575.8,256.8,578.1L256.8,578.1z"/>
	<path class="st2" d="M277.2,577.2c0,2.3,0.8,3.2,2.8,4.3c1.1,0.6,3.1,0.9,3.1,2.3c0,0.9-0.5,1.6-2.4,1.6c-1.8,0-4.2-0.2-7-0.2
		c-1.9,0-3.5,0.2-5.6,0.2c-1.7,0-2.2-0.7-2.2-1.5c0-1.2,1.2-1.7,2-2.2c1.8-1.3,2.1-2.7,2.1-4.5v-22.7c0-1-0.4-1.5-1.4-1.7
		c-3-0.3-4.2-0.3-4.2-1.5c0-1.1,1.1-2.3,1.8-2.6c1-0.4,2.7,0,3.5-1.2c0.6-1,0.6-4.7,1.5-7.7c1.7-5.4,5.8-9.8,11.8-9.8
		c4.6,0,7.6,2.6,7.6,5.3s-1.3,5.3-3.6,5.3c-1.4,0-1.6-1.3-2.2-2.4c-1.1-1.8-2.3-3.2-4.5-3.2c-3,0-4.7,2.7-4.7,6.8
		c0,4.9,1.1,6.6,3.9,6.6c1.4,0,7.1-0.3,8-0.3c1.2,0,1.9,0.5,1.9,1.7c0,1-0.5,2.4-1.2,3.2c-0.3,0.3-0.8,0.5-1.2,0.5
		c-0.9,0-8-0.4-9.3-0.4c-0.2,0-0.5,0.1-0.5,0.9L277.2,577.2L277.2,577.2L277.2,577.2z"/>
	<path class="st2" d="M309.1,546.6c10.1,0,19.1,7.5,19.1,20.6s-8.4,18.7-18.6,18.7c-11.5,0-18.9-8.1-18.9-19.4
		S298.4,546.6,309.1,546.6L309.1,546.6z M298.6,564.2c0,3.1,0.5,7.2,2.2,10.6c2.5,4.8,6.5,6.5,10,6.5c5.2,0,10-3.8,10-12.3
		c0-4.1-1-8.5-2.7-11.6c-2.4-4.4-6-6.6-9.6-6.6C303,550.7,298.6,555.4,298.6,564.2L298.6,564.2z"/>
	<path class="st2" d="M344,561.8v15.4c0,2.3,0.9,3.3,2.9,4.3c1.1,0.6,3.1,0.9,3.1,2.2c0,0.9-0.5,1.6-2.4,1.6c-1.8,0-4.3-0.2-7.1-0.2
		c-2.1,0-2.5,0.2-5.6,0.2c-1.7,0-2.2-0.7-2.2-1.5c0-1.2,1.2-1.7,2-2.2c1.8-1.3,2.1-2.7,2.1-4.5V556c0-1.7-1.1-2.3-2.6-2.8
		c-0.8-0.3-1.4-0.8-1.4-1.5c0-1.5,1.6-1.7,3.6-2.6c2.6-1.1,3.9-1.9,5.1-1.9c0.9,0,1.5,0.4,1.8,1.8c0.4,2,0.5,4.3,1.2,4.3
		s4.9-6.5,11.6-6.5c3.2,0,6.4,1.9,6.4,6.7c0,3.3-2.1,6.3-5,6.3c-1.9,0-1.7-1.2-2.1-3.3c-0.4-2.2-1.6-3.7-3.5-3.7
		C348.1,552.6,344,557.8,344,561.8z"/>
	<path class="st2" d="M413.9,546.6c7.2,0,11.6,5,11.6,15.3c0,7.5-1,13.9-1,16.2c0,1.3,0.6,2.6,1.7,3.3c1.3,0.8,2.4,1,2.4,2.2
		c0,1-0.6,1.6-2.5,1.6c-1.4,0-2.4-0.2-4.3-0.2c-2,0-2.9,0.2-4.4,0.2c-1.3,0-1.7-0.7-1.7-1.5c0-0.9,0.6-2.1,0.8-2.7
		c0.7-2.2,1.7-9.4,1.7-17.4s-3.1-11.7-7.9-11.7c-4,0-8.9,3.8-8.9,9.4c0,7.5-0.5,14.4-0.5,16.8c0,1.3,0.4,2.6,1.5,3.3
		c1.3,0.8,2.4,1,2.4,2.2c0,1-0.6,1.6-2.5,1.6c-1.4,0-2.2-0.2-4.1-0.2c-2.1,0-3,0.2-4.4,0.2c-1.2,0-1.7-0.7-1.7-1.5
		c0-0.9,0.5-2.1,0.8-2.7c0.7-2.2,1.4-9.4,1.4-17.4s-2.9-11.7-7.7-11.7c-4.4,0-9.1,5-9.1,8.5v16.9c0,2.3,0.5,3.3,1.6,4.1
		c1,0.8,2.1,1,2.1,2.3c0,0.9-0.5,1.6-2.3,1.6s-3-0.2-4.8-0.2c-1.9,0-3.4,0.2-5.5,0.2c-1.7,0-2.1-0.7-2.1-1.5c0-1.2,1.2-1.7,1.9-2.2
		c1.7-1.3,2-2.7,2-4.5V556c0-1.7-1.1-2.3-2.4-2.8c-0.7-0.3-1.4-0.8-1.4-1.6c0-1.5,1.7-1.7,3.7-2.6c2.6-1.1,3.8-1.9,4.9-1.9
		c0.9,0,1.5,0.4,1.8,1.8c0.4,2,0.5,4.3,1.1,4.3s5.2-6.5,12.1-6.5c3.6,0,7,1.5,9.2,5.1c0.8,1.2,1.2,1.9,1.6,1.9
		C401.6,553.6,405.9,546.6,413.9,546.6L413.9,546.6z"/>
	<path class="st2" d="M457.1,563.2c0.3-0.2,0.7-0.7,0.7-2.9c0-5.5-2.3-10.1-8.1-10.1c-4.7,0-6.6,3.5-7.3,6.8c-0.4,1.7-1,2.6-2.7,2.6
		s-3.9-1.2-3.9-4.2c0-4.2,5.2-8.8,14.1-8.8c10,0,15.3,6.1,15.3,15.1c0,5-0.4,11.8-0.4,14.9c0,1.7,0.6,3.3,2.2,3.3c1,0,1.4-0.4,2-0.4
		c0.2,0,0.6,0.3,0.6,1.2c0,2.6-2.6,4.9-5.8,4.9c-2.9,0-5-1.2-6.1-4.1c-0.1-0.4-0.3-0.6-0.6-0.6c-0.3,0-0.6,0.5-0.9,0.8
		c-2.5,2.5-6.7,4.4-11.2,4.4c-6.4,0-11.3-3.4-11.3-9.3s4.4-9.8,11.1-11.6C449.8,563.8,456.3,563.7,457.1,563.2L457.1,563.2z
		 M457,567.3c-3.9,0-7,0.3-9.5,1.1c-4.7,1.4-6.4,4.4-6.4,7.1c0,3.6,2.9,5.6,6.5,5.6c5.8,0,10.1-4.1,10.1-11
		C457.8,568.1,457.6,567.3,457,567.3L457,567.3z"/>
	<path class="st2" d="M483.8,570.9c0,4.2,0.7,9.2,5.8,9.2c2.7,0,4.8-1.8,6-3.1c0.6-0.7,1-1.1,1.5-1.1c0.4,0,0.9,0.3,0.9,1.3
		c0,0.6-0.2,1.6-0.8,2.5c-1.4,2.4-4.5,6.2-10.8,6.2s-9.8-4.1-9.8-13.3c0-3.5,0.5-14.8,0.5-18c0-1.3-0.3-1.9-1.3-2
		c-3.2-0.3-4.9-0.4-4.9-1.8c0-1,0.5-1.7,1.6-2.2c2-0.8,4.1-1.8,5.6-3.6c2.7-3.2,2.8-7.7,4.8-7.7c1,0,1.6,0.9,1.6,2.6
		c0,1.4-0.4,7.7-0.4,8c0,0.2,0,0.3,0.3,0.3c0.5,0,9.4-0.4,10.2-0.4c1.2,0,2.1,0.4,2.1,1.9c0,1.2-0.6,2.6-1.2,3.1
		c-0.2,0.2-0.6,0.4-1.1,0.4c-0.7,0-8.8-0.4-9.7-0.4c-0.2,0-0.5,0.1-0.5,0.6C484.1,554.5,483.8,567.1,483.8,570.9L483.8,570.9z"/>
	<path class="st2" d="M513,560.4v16.9c0,2.3,0.7,3.3,1.8,4.1s2.3,1,2.3,2.3c0,0.9-0.5,1.6-2.4,1.6s-3.1-0.2-5.2-0.2
		s-2.6,0.2-5.6,0.2c-1.7,0-2.2-0.7-2.2-1.5c0-1.2,1.2-1.7,2-2.2c1.8-1.3,2.1-2.7,2.1-4.5v-20.5c0-1.8-1-2.7-2.5-3.2
		c-0.8-0.4-1.6-0.9-1.6-1.7c0-1.5,1.6-1.7,3.6-2.4c3.4-1.4,5-2.5,6.1-2.5c1.3,0,1.9,0.7,1.9,2.2S513,553.4,513,560.4L513,560.4z
		 M510.4,531.6c2.4,0,4.2,1.5,4.2,3.9c0,3.4-3.5,6-7,6c-2.5,0-3.7-1.4-3.7-3.4C504,534.9,507.1,531.6,510.4,531.6z"/>
	<path class="st2" d="M545.7,576.6c-1.1,2.8-2.1,5.4-3.6,7.1c-0.8,1-2.9,1.9-4.2,1.9c-1.8,0-2.2-1.1-3-3.1c-0.5-1.1-7.2-17.9-9-22.4
		c-1.5-3.7-3-7.3-4.9-8.6c-0.9-0.7-1.7-1.3-1.7-2.4c0-1,0.6-1.7,1.9-1.7c1.6,0,3.1,0.2,4.8,0.2c1.6,0,4.1-0.2,5.8-0.2
		c1.3,0,2.2,0.2,2.2,1.8c0,1.2-2.3,2-2.3,4.1c0,1.4,0.6,3.5,3.8,11.9c2.8,7.4,4.5,11.8,5,11.8c0.6,0,2.4-4.5,5.1-12.8
		c2.4-7.3,2.7-9.3,2.7-10.6c0-2.7-2.8-3-2.8-4.6c0-1.1,0.7-1.7,1.7-1.7c1.2,0,3.7,0.2,4.8,0.2c1.3,0,3.3-0.2,4.2-0.2
		c1.4,0,1.7,0.7,1.7,1.5c0,2.1-2.3,1.7-4.4,6.9C551.1,561.4,546.3,575.2,545.7,576.6L545.7,576.6z"/>
	<path class="st2" d="M578.5,546.6c10.1,0,19.1,7.5,19.1,20.6s-8.4,18.7-18.6,18.7c-11.5,0-18.9-8.1-18.9-19.4
		C560.1,554.8,567.8,546.6,578.5,546.6L578.5,546.6z M567.9,564.2c0,3.1,0.5,7.2,2.2,10.6c2.5,4.8,6.5,6.5,10,6.5
		c5.2,0,10-3.8,10-12.3c0-4.1-1-8.5-2.7-11.6c-2.4-4.4-6-6.6-9.6-6.6C572.4,550.7,567.9,555.4,567.9,564.2L567.9,564.2z"/>
</g>
<g>
	<path class="st2" d="M187.7,703.2c-0.4-0.5-0.6-1-1-1c-0.3,0-0.6,0.4-1.2,0.9c-1.1,1-2.9,2.4-5.9,2.4c-5,0-9.2-4-9.2-12.4
		c0-9.1,4.4-14.3,10.1-14.3c4,0,5.2,1.9,5.6,1.9c0.2,0,0.4-0.4,0.4-2.3v-0.5c0-1.6-1.1-2.6-1.6-3c-0.6-0.4-1.1-0.8-1.1-1.6
		c0-1.5,2.1-1.8,4.7-2.8c2.6-1.1,4.7-2.3,6-2.3c1.1,0,2,0.6,2,1.9c0,3.8-0.3,3.4-0.3,11.3v15.1c0,0.8,0.4,1.9,1.6,1.9
		c0.4,0,0.7-0.1,1-0.1c0.4,0,0.6,0.6,0.6,1.2c0,3.6-3,6.1-6.6,6.1C190.3,705.6,189,704.9,187.7,703.2L187.7,703.2z M186.7,691.7
		c0-5.8-1.3-7.6-2.8-7.6c-1.6,0-2.9,1.5-2.9,6.9s1.5,7.5,3.3,7.5C185.7,698.5,186.7,697.4,186.7,691.7L186.7,691.7z"/>
	<path class="st2" d="M212.4,693.9c-0.5,0.1-0.7,0.2-0.7,0.5c0,1.4,1.5,3.3,5,3.3c3.1,0,4.8-1.4,6.1-2.1c0.4-0.3,0.8-0.4,1.1-0.4
		c0.6,0,1,0.6,1,1.7c0,3.8-4.4,8.7-11.4,8.7c-8.3,0-13-5.3-13-12.8s5.5-14,13.8-14s10.2,6.1,10.2,9c0,2-1.1,3.2-2.7,3.9
		C219,693.1,214.4,693.7,212.4,693.9L212.4,693.9z M213.2,683.8c-1.9,0-2.9,2-2.9,4c0,1.2,0.4,1.9,1.3,1.9c1,0,2.8-0.8,3.6-2.2
		c0.2-0.4,0.3-0.8,0.3-1.3C215.4,684.9,214.5,683.8,213.2,683.8L213.2,683.8z"/>
	<path class="st2" d="M251.4,681.4v15c0,2.5,0.3,3.3,1.1,4.3s1.7,1.2,1.7,2.7c0,1.1-0.6,1.9-2.3,1.9s-3.8-0.2-5.2-0.2
		c-2,0-3.9,0.2-6.1,0.2c-1.3,0-1.8-0.8-1.8-1.8c0-1.4,1.1-2.2,1.5-2.8c1.3-1.8,1.4-3.5,1.4-4.8v-18.4c0-1.5-1.1-2.3-1.6-2.6
		c-0.6-0.4-1.1-0.8-1.1-1.6c0-1.5,2.1-1.8,4.7-2.8c2.6-1.1,4.7-2.3,6-2.3c1.1,0,2,0.6,2,1.9C251.7,673.8,251.4,673.5,251.4,681.4
		L251.4,681.4z"/>
	<path class="st2" d="M268.7,689c0.4-0.3,0.8-1,0.8-2.9c0-1.8-0.9-3-2.2-3s-2.3,1.2-3.2,3.9c-0.5,1.6-1.3,2.9-3.4,2.9
		c-2.4,0-4.2-1.6-4.2-4.5c0-3.3,3.8-6.6,10.7-6.6c5.8,0,12.1,2,12.1,10c0,3.1-0.3,4.7-0.3,7.8c0,0.8,0.3,1.9,1.4,1.9
		c0.4,0,0.7-0.1,1-0.1c0.4,0,0.6,0.6,0.6,1.2c0,3.6-3,6.1-6.6,6.1c-2.8,0-4.2-0.9-5.1-2.2c-0.2-0.2-0.3-0.5-0.5-0.5
		s-0.5,0.2-0.7,0.4c-1.5,1.3-4,2.4-6.2,2.4c-4.2,0-7.5-2.1-7.5-6.4c0-4,2.6-6.4,6.9-8.1C265.3,690,267.8,689.7,268.7,689L268.7,689z
		 M269.1,693.7c-0.3,0-0.8,0.2-1.5,0.6c-1.1,0.6-2.4,1.7-2.4,3.2c0,0.9,0.5,1.9,1.7,1.9c2,0,2.5-1.9,2.5-3.4
		C269.5,694,269.3,693.7,269.1,693.7L269.1,693.7z"/>
</g>
<g>
	<path class="st2" d="M336.8,671.4c7.5,0,10.4,1.8,13.5,1.8c2.6,0,4.3-1.2,6.9-1.2c5.2,0,5.3,5,6.5,11.1c1.5,8.3,2.3,10.1,2.3,11.9
		c0,2.8-1.7,4.1-3.4,4.1c-3.4,0-5.1-4-7.9-7.9c-4.7-6.5-9.9-9.4-14.5-9.4c-9.5,0-13.2,8.4-13.2,17.9c0,14.5,7.5,27,20.2,27
		c7.6,0,11.9-4.6,14.2-7.8c1.2-1.8,2.2-3,3.3-3c1.9,0,2.7,2.5,2.7,4.7c0,4.4-1.2,8.6-3.5,12.3c-4.9,7.6-14.5,13-27.1,13
		c-23,0-35-18.1-35-37.3C301.7,690.4,312.3,671.4,336.8,671.4L336.8,671.4z"/>
	<path class="st2" d="M404.3,672.9c19.8,0,38.4,10.2,38.4,35.3c0,22.1-11.8,36.1-32.9,36.1c-6.1,0-14.6-0.4-20.6-0.4
		c-4.5,0-9.1,0.3-13.3,0.3c-3.2,0-4.9-1.6-4.9-3.5c0-4.4,5.1-4.6,6.2-12.1c0.5-3.6,0.7-10.1,0.7-22.5c0-8.7,0-11.5-0.2-14.4
		c-0.9-10.4-6.2-10.1-6.2-14.9c0-2.3,1.1-4,4.4-4c4.5,0,9,0.3,13.3,0.3C394.9,673.2,398.6,672.9,404.3,672.9L404.3,672.9z
		 M400.2,719.2c0,10,1.5,12.8,5.1,12.8c10.1,0,12.2-12.6,12.2-21.4c0-14.6-5.7-26.2-14.4-26.2c-2.2,0-2.9,3.3-2.9,10.4L400.2,719.2
		L400.2,719.2L400.2,719.2z"/>
	<path class="st2" d="M497.7,724.4c-1.6,4.5-4,11-5.9,15c-1.6,2.9-3.9,5.1-7.3,5.1c-1.7,0-3.2-1.6-4.1-3.4
		c-1.8-3.9-6.5-15.7-11.8-28.1c-0.8-2-1.4-3-1.9-3c-0.4,0-0.7,0.5-0.8,1.5c-0.1,0.5-0.1,1.2-0.1,3c0,7.9,0.7,14.8,1.9,17.5
		c1.9,4.4,4.9,4.8,4.9,8.4c0,2.3-1.1,4-4.4,4c-4.5,0-6-0.3-8.4-0.3c-2.9,0-6,0.3-10.3,0.3c-3.1,0-4.3-1.7-4.3-4
		c0-4.9,5.3-3.5,6.8-13.9c1.1-8.2,1.9-16.7,1.9-25.1c0-2.6-0.1-6.8-0.3-9.5c-0.9-10.4-6.1-10.1-6.1-15c0-2.3,1.1-4,4.4-4
		c2.4,0,7.7,0.3,10.9,0.3c7.6,0,9.5,0.4,11.8,1.9s4.7,5.1,5.9,7.4c2.1,3.7,6.1,12.9,10,22c0.3,0.7,0.6,1.2,1.1,1.2
		c0.3,0,0.7-0.2,1.1-1.1c1.1-2.9,7.4-18.1,9.5-22.4c1.8-3.6,3.4-5.9,5.4-7.2c2.2-1.4,5.9-1.8,12.7-1.8c2.1,0,5.4-0.3,7.8-0.3
		c3.2,0,4.4,1.7,4.4,4c0,4.9-5.2,4.6-6.1,15c-0.2,2.7-0.3,6.9-0.3,9.5c0,8.4,0.7,16.9,1.9,25.1c1.5,10.4,6.9,9.1,6.9,13.9
		c0,2.3-1.1,4-4.3,4c-4.3,0-10-0.3-12.9-0.3c-4.5,0-9.2,0.3-13.4,0.3c-3.2,0-4.9-1.5-4.9-3.6c0-4.3,5.2-4.5,6.4-11.9
		c0.2-1.1,0.2-3,0.2-5.3c0-4.7-0.2-9.9-0.7-12.9c-0.2-1-0.6-1.2-0.7-1.2C503.2,709.3,500.4,716.8,497.7,724.4L497.7,724.4z"/>
	<path class="st2" d="M594.8,717.5c2.6,3.7,7.1,9.2,9.2,11.5c4.4,4.9,9.7,6.2,9.7,10.7c0,3.4-2,4.6-7.1,4.6
		c-3.3,0-10.3-0.3-16.2-0.3s-8.1,0.3-11.9,0.3c-3.6,0-5.5-1.6-5.5-4.1c0-3.5,3-4.3,3-8.3c0-2.5-3.7-9.1-5.8-10.9
		c-0.2-0.2-0.5-0.4-0.8-0.4c-0.2,0-0.6,0.3-0.8,0.5c-2,1.8-5.5,7.6-5.5,10.3c0,4.2,4.4,5.2,4.4,9.2c0,2.1-1.1,3.7-5.2,3.7
		c-2.8,0-9-0.3-12-0.3s-7.1,0.3-9.9,0.3s-4.2-1.4-4.2-3.6c0-4.7,5-5.7,12.9-13.4c2.3-2.2,5.8-7,8.4-10.5c2.9-4.1,3.7-6.1,3.7-7.4
		c0-1.8-2.1-3.7-8.3-12.9c-2.6-3.7-7.1-8.7-9.4-10.8c-3.2-2.9-6.1-4.5-6.1-8.1c0-3.4,2.3-4.6,7.4-4.6c3.3,0,6.7,0.3,12.6,0.3
		s10.7-0.3,14.5-0.3c3.5,0,5.5,1.6,5.5,4.1c0,3.5-2.9,4.4-2.9,8.3c0,2.8,2.7,7.3,4.4,9.4c0.2,0.2,0.5,0.3,0.8,0.3
		c0.2,0,0.6-0.2,0.8-0.4c2-1.8,4.4-6.2,4.4-9c0-3.9-3.3-5.5-3.3-9c0-2.1,1.2-3.7,5.2-3.7c2.8,0,6.7,0.3,9.7,0.3s7.1-0.3,9.9-0.3
		s4.2,1.4,4.2,3.6c0,4.7-5.8,6.8-11.8,13c-2.2,2.3-6.5,7.7-9.7,12.1c-1,1.5-1.4,2.7-1.4,3.1C587.6,706.5,588.5,708.5,594.8,717.5
		L594.8,717.5z"/>
</g>
<g>
	<path class="st2" d="M192.2,625.8c-3.1,0-4.3-2.1-4.6-2.1c-0.2,0-0.3,0.3-0.3,1v4.1c0,1.2,0.9,1.6,1.4,1.9c0.5,0.3,1.1,0.5,1.1,1
		c0,0.4-0.2,0.7-1.1,0.7c-0.6,0-1.9-0.1-2.8-0.1c-1,0-1.8,0.1-2.8,0.1c-0.8,0-1-0.3-1-0.7c0-0.6,0.6-0.8,0.9-1c0.8-0.6,1-1.2,1-2.1
		v-16.5c0-0.8-0.5-1.1-1.2-1.3c-0.3-0.1-0.7-0.4-0.7-0.7c0-0.7,0.7-0.8,1.7-1.2c1.2-0.5,1.8-0.9,2.3-0.9c0.4,0,0.7,0.2,0.8,0.8
		c0.2,0.9,0.2,2,0.5,2s1.9-3,5.6-3c4.1,0,6.7,3.3,6.7,8.5C199.9,621.8,197,625.8,192.2,625.8L192.2,625.8z M187.3,616.9
		c0,5,2.1,6.8,4.6,6.8s4.5-2.2,4.5-6.8s-1.9-6.7-4.4-6.7C189.6,610.2,187.3,612.3,187.3,616.9L187.3,616.9z"/>
	<path class="st2" d="M212.9,615.5c0.1-0.1,0.3-0.3,0.3-1.3c0-2.5-1-4.6-3.7-4.6c-2.1,0-3,1.6-3.3,3.1c-0.2,0.8-0.4,1.2-1.2,1.2
		s-1.8-0.6-1.8-1.9c0-1.9,2.4-4,6.4-4c4.6,0,7,2.8,7,6.9c0,2.3-0.2,5.4-0.2,6.8c0,0.8,0.3,1.5,1,1.5c0.5,0,0.6-0.2,0.9-0.2
		c0.1,0,0.3,0.1,0.3,0.5c0,1.2-1.2,2.2-2.7,2.2c-1.3,0-2.3-0.5-2.8-1.9c-0.1-0.2-0.2-0.3-0.3-0.3s-0.3,0.2-0.4,0.4
		c-1.1,1.1-3,2-5.1,2c-2.9,0-5.2-1.5-5.2-4.3s2-4.5,5.1-5.3C209.5,615.8,212.5,615.7,212.9,615.5L212.9,615.5z M212.8,617.3
		c-1.8,0-3.2,0.1-4.3,0.5c-2.1,0.6-2.9,2-2.9,3.3c0,1.7,1.3,2.6,2.9,2.6c2.6,0,4.6-1.9,4.6-5C213.2,617.7,213.1,617.3,212.8,617.3
		L212.8,617.3z"/>
	<path class="st2" d="M225.6,614.8v7c0,1,0.4,1.5,1.3,2c0.5,0.3,1.4,0.4,1.4,1c0,0.4-0.2,0.7-1.1,0.7c-0.8,0-2-0.1-3.2-0.1
		c-1,0-1.1,0.1-2.6,0.1c-0.8,0-1-0.3-1-0.7c0-0.6,0.6-0.8,0.9-1c0.8-0.6,1-1.2,1-2.1v-9.6c0-0.8-0.5-1.1-1.2-1.3
		c-0.3-0.1-0.7-0.4-0.7-0.7c0-0.7,0.7-0.8,1.7-1.2c1.2-0.5,1.8-0.9,2.3-0.9c0.4,0,0.7,0.2,0.8,0.8c0.2,0.9,0.2,2,0.5,2s2.2-3,5.3-3
		c1.4,0,2.9,0.9,2.9,3c0,1.5-1,2.9-2.3,2.9c-0.9,0-0.8-0.5-0.9-1.5c-0.2-1-0.7-1.7-1.6-1.7C227.4,610.6,225.6,613,225.6,614.8
		L225.6,614.8z"/>
	<path class="st2" d="M246,615.5c0.1-0.1,0.3-0.3,0.3-1.3c0-2.5-1-4.6-3.7-4.6c-2.1,0-3,1.6-3.3,3.1c-0.2,0.8-0.4,1.2-1.2,1.2
		s-1.8-0.6-1.8-1.9c0-1.9,2.4-4,6.4-4c4.6,0,7,2.8,7,6.9c0,2.3-0.2,5.4-0.2,6.8c0,0.8,0.3,1.5,1,1.5c0.5,0,0.6-0.2,0.9-0.2
		c0.1,0,0.3,0.1,0.3,0.5c0,1.2-1.2,2.2-2.7,2.2c-1.3,0-2.3-0.5-2.8-1.9c-0.1-0.2-0.2-0.3-0.3-0.3s-0.3,0.2-0.4,0.4
		c-1.1,1.1-3,2-5.1,2c-2.9,0-5.2-1.5-5.2-4.3s2-4.5,5.1-5.3C242.6,615.8,245.6,615.7,246,615.5L246,615.5z M245.9,617.3
		c-1.8,0-3.2,0.1-4.3,0.5c-2.1,0.6-2.9,2-2.9,3.3c0,1.7,1.3,2.6,2.9,2.6c2.6,0,4.6-1.9,4.6-5C246.3,617.7,246.2,617.3,245.9,617.3
		L245.9,617.3z"/>
</g>
<g>
	<path class="st2" d="M308.2,607.7c7.5,0,12.1,5.2,12.1,15.9c0,7.8-1,14.5-1,16.9c0,1.3,0.6,2.7,1.8,3.5c1.4,0.9,2.5,1,2.5,2.3
		c0,1-0.7,1.7-2.5,1.7c-1.5,0-2.5-0.2-4.5-0.2c-2.1,0-3.1,0.2-4.6,0.2c-1.3,0-1.8-0.7-1.8-1.6c0-1,0.6-2.2,0.8-2.9
		c0.8-2.3,1.8-9.7,1.8-18.2s-3.2-12.2-8.2-12.2c-4.2,0-9.3,4-9.3,9.8c0,7.8-0.5,15.1-0.5,17.5c0,1.3,0.4,2.7,1.5,3.5
		c1.3,0.9,2.5,1,2.5,2.3c0,1-0.7,1.7-2.5,1.7c-1.5,0-2.3-0.2-4.2-0.2c-2.2,0-3.1,0.2-4.6,0.2c-1.3,0-1.8-0.7-1.8-1.6
		c0-1,0.5-2.2,0.8-2.9c0.7-2.3,1.4-9.7,1.4-18.2s-3.1-12.2-8.1-12.2c-4.6,0-9.5,5.2-9.5,8.9v17.6c0,2.4,0.5,3.4,1.7,4.3
		c1,0.8,2.2,1,2.2,2.4c0,1-0.5,1.7-2.4,1.7s-3.2-0.2-5-0.2c-2,0-3.6,0.2-5.7,0.2c-1.8,0-2.2-0.7-2.2-1.6c0-1.3,1.2-1.8,2-2.3
		c1.8-1.4,2.1-2.8,2.1-4.7v-22c0-1.8-1.1-2.5-2.5-2.9c-0.8-0.3-1.5-0.8-1.5-1.7c0-1.5,1.8-1.8,3.9-2.6c2.7-1.1,4-2,5.1-2
		c1,0,1.6,0.4,1.9,1.8c0.4,2.1,0.4,4.5,1.1,4.5s5.4-6.8,12.6-6.8c3.8,0,7.3,1.5,9.6,5.3c0.8,1.2,1.2,2,1.7,2
		C295.4,615.1,299.8,607.7,308.2,607.7L308.2,607.7z"/>
	<path class="st2" d="M340.4,622.1v17.7c0,2.4,0.7,3.4,1.8,4.3c1.1,0.8,2.4,1,2.4,2.4c0,1-0.5,1.7-2.5,1.7s-3.2-0.2-5.4-0.2
		s-2.6,0.2-5.9,0.2c-1.8,0-2.3-0.7-2.3-1.6c0-1.3,1.3-1.8,2-2.3c1.9-1.4,2.2-2.8,2.2-4.7v-21.4c0-1.8-1-2.8-2.6-3.3
		c-0.8-0.3-1.7-0.9-1.7-1.8c0-1.6,1.7-1.8,3.8-2.5c3.5-1.5,5.2-2.5,6.4-2.5c1.4,0,2,0.7,2,2.3C340.7,611.8,340.4,614.7,340.4,622.1
		L340.4,622.1z M337.8,592.1c2.5,0,4.4,1.6,4.4,4.1c0,3.5-3.7,6.3-7.3,6.3c-2.6,0-3.9-1.5-3.9-3.5
		C331,595.5,334.3,592.1,337.8,592.1L337.8,592.1z"/>
	<path class="st2" d="M380,609.5c6.7,0,7-1.6,8.6-1.6c0.8,0,1.1,0.8,1.1,2c0,1.1-0.3,2.5-0.9,3.3c-0.4,0.7-1.1,1.6-2.5,1.6
		c-2.6,0-4.8-0.8-5.6-0.8c-0.4,0-0.4,0.2-0.4,0.3c0,0.6,2.5,2.8,2.5,7.1c0,8.6-7,13.6-16,13.6c-1.5,0-3.4-0.3-4.8-0.3
		c-2.5,0-5.4,1.4-5.4,4.1c0,2.4,2.2,3.9,5.9,3.9c2.9,0,8.5-0.9,12.9-0.9c6.9,0,12.2,2.4,12.2,9.6c0,8.4-10.9,14-23.5,14
		c-10.9,0-16.1-3.6-16.1-9.2c0-3.7,3-6.6,6.4-7.9c0.4-0.2,0.6-0.3,0.6-0.5s-0.2-0.3-0.5-0.4c-1.1-0.6-4.1-2.7-4.1-6.6
		c0-2.7,2.1-5.9,6-7.5c0.4-0.2,0.6-0.3,0.6-0.5s-0.2-0.4-0.4-0.7c-2.4-1.8-5.2-5.2-5.2-10.3c0-9.1,7.4-13.9,15.8-13.9
		C372.2,607.8,376.9,609.4,380,609.5L380,609.5z M372.2,648.8c-3.7,0-9,0.5-11,1c-4,1-6.5,3.2-6.5,5.9c0,3.9,4.6,5.3,10.4,5.3
		c8.2,0,14-3.2,14-7.4C379.1,650.3,376.2,648.8,372.2,648.8L372.2,648.8z M367.5,630.7c4.6,0,8.2-2.9,8.2-8.6
		c0-3.9-1.9-10.1-8.5-10.1c-4.6,0-8.2,3.6-8.2,9C359.1,627.4,363,630.7,367.5,630.7z"/>
	<path class="st2" d="M405.4,623.6v16c0,2.4,0.9,3.4,3,4.5c1.1,0.6,3.2,0.9,3.2,2.3c0,1-0.5,1.7-2.5,1.7s-4.5-0.2-7.4-0.2
		c-2.2,0-2.6,0.2-5.9,0.2c-1.8,0-2.3-0.7-2.3-1.6c0-1.3,1.3-1.8,2.1-2.3c1.8-1.4,2.2-2.8,2.2-4.7v-22c0-1.8-1.1-2.5-2.7-3
		c-0.8-0.3-1.5-0.8-1.5-1.6c0-1.5,1.7-1.8,3.8-2.6c2.7-1.1,4.1-2,5.4-2c1,0,1.6,0.4,1.9,1.8c0.3,2.1,0.5,4.5,1.2,4.5
		s5.2-6.8,12.1-6.8c3.3,0,6.7,2,6.7,6.9c0,3.4-2.2,6.6-5.2,6.6c-1.9,0-1.8-1.2-2.2-3.4c-0.4-2.3-1.7-3.9-3.6-3.9
		C409.6,614,405.4,619.5,405.4,623.6L405.4,623.6z"/>
	<path class="st2" d="M452.1,625c0.3-0.3,0.7-0.7,0.7-3.1c0-5.8-2.4-10.5-8.5-10.5c-4.8,0-6.9,3.7-7.6,7.1c-0.4,1.8-1,2.7-2.8,2.7
		s-4-1.3-4-4.4c0-4.4,5.4-9.1,14.7-9.1c10.4,0,16,6.3,16,15.8c0,5.2-0.4,12.3-0.4,15.5c0,1.8,0.6,3.5,2.3,3.5c1,0,1.4-0.3,2-0.3
		c0.2,0,0.6,0.3,0.6,1.2c0,2.6-2.6,5.1-6,5.1c-3,0-5.2-1.2-6.3-4.3c-0.1-0.3-0.3-0.7-0.6-0.7c-0.3,0-0.6,0.5-0.9,0.8
		c-2.6,2.6-6.9,4.6-11.8,4.6c-6.7,0-11.8-3.5-11.8-9.7S432,628.9,439,627C444.5,625.7,451.2,625.6,452.1,625L452.1,625z M452,629.3
		c-4.1,0-7.3,0.3-9.9,1.1c-4.8,1.5-6.7,4.6-6.7,7.5c0,3.8,3,5.9,6.8,5.9c6,0,10.6-4.3,10.6-11.5C452.8,630.1,452.5,629.3,452,629.3
		L452,629.3z"/>
	<path class="st2" d="M507.1,640.6c0,1.3,0.6,2.7,1.8,3.5c1.4,0.8,2.6,1,2.6,2.3c0,1-0.7,1.7-2.6,1.7c-1.5,0-2.5-0.2-4.7-0.2
		s-3.2,0.2-4.7,0.2c-1.4,0-1.8-0.7-1.8-1.6c0-1,0.7-2.2,0.9-2.9c0.7-2.3,1.8-9.7,1.8-18.2s-3.4-12.2-8.9-12.2s-10.3,5.2-10.3,8.9
		v17.6c0,2.4,0.6,3.4,1.8,4.3c1.1,0.8,2.4,1,2.4,2.4c0,1-0.5,1.7-2.5,1.7s-3.3-0.2-5.3-0.2s-3.6,0.2-5.9,0.2c-1.8,0-2.3-0.7-2.3-1.6
		c0-1.3,1.3-1.8,2.1-2.3c1.8-1.4,2.2-2.8,2.2-4.7v-22c0-1.8-1.1-2.5-2.7-3c-0.8-0.3-1.5-0.8-1.5-1.6c0-1.5,1.7-1.8,3.8-2.6
		c2.7-1.1,4.1-2,5.3-2c1,0,1.6,0.4,1.9,1.8c0.3,2.1,0.5,4.5,1.2,4.5s5.7-6.8,13.6-6.8s13,5.2,13,15.9
		C508.3,631.5,507.1,638.1,507.1,640.6L507.1,640.6z"/>
	<path class="st2" d="M528,633.1c0,4.4,0.7,9.7,6,9.7c2.8,0,5-1.8,6.2-3.2c0.7-0.7,1-1.1,1.5-1.1c0.3,0,1,0.3,1,1.4
		c0,0.7-0.3,1.7-0.8,2.6c-1.5,2.5-4.7,6.4-11.3,6.4s-10.3-4.3-10.3-14c0-3.7,0.5-15.4,0.5-18.8c0-1.4-0.3-1.9-1.3-2.1
		c-3.3-0.3-5.1-0.4-5.1-1.9c0-1,0.4-1.8,1.7-2.3c2.1-0.8,4.3-1.8,5.9-3.8c2.8-3.3,2.9-8.1,5-8.1c1,0,1.7,1,1.7,2.6
		c0,1.4-0.3,8.1-0.3,8.3s0,0.3,0.3,0.3c0.5,0,9.8-0.4,10.6-0.4c1.2,0,2.2,0.3,2.2,2c0,1.2-0.7,2.7-1.2,3.2c-0.2,0.2-0.6,0.3-1.1,0.3
		c-0.7,0-9.2-0.3-10.1-0.3c-0.3,0-0.5,0.1-0.5,0.6C528.3,615.9,528,629.1,528,633.1L528,633.1z"/>
	<path class="st2" d="M555,630.6c-0.7,0-1,0.2-1,0.7c0,3.7,3.3,11.3,12.2,11.3c6.4,0,10.3-3.2,12.3-7.3c0.3-0.6,0.9-1.1,1.4-1.1
		s0.9,0.6,0.9,1.8c0,4.5-5.3,12.7-16.5,12.7s-18.7-8.2-18.7-19.6s7.8-21.4,19.6-21.4c9.2,0,15,6.4,15,14.2c0,2.2-1,3.5-2.5,4.5
		C572.9,629.4,561.5,630.4,555,630.6L555,630.6z M564.5,612c-6.3,0-11.1,6.3-11.1,13c0,1,0.3,1.6,1.1,1.6c3.4,0,13.1-1,16.7-3
		c1-0.6,1.6-1.4,1.6-2.6C572.8,615.9,569.2,612,564.5,612L564.5,612z"/>
	<path class="st2" d="M613.4,611.2c1.4,1.5,1.8,3.3,1.8,6.3c0,2-0.6,3-1.7,3c-1.2,0-2-1.5-3.1-3c-1.8-2.5-4.7-5.9-9.9-5.9
		c-4.3,0-6.7,2.4-6.7,5.5c0,4,4,5.3,9.7,7.2c7,2.1,13.5,4.4,13.5,12.5s-6.9,12.1-15.4,12.1c-4.8,0-11.8-1.6-14.4-5.6
		c-1-1.4-1.5-3.4-1.5-5.8c0-2.2,0.6-3.2,1.8-3.2c0.8,0,1.5,1,2.2,2.2c1.9,3.2,5.6,7.8,12.6,7.8c4.4,0,6.9-2.3,6.9-6
		c0-4.5-4.3-5.6-10.5-7.7c-5.6-1.9-11.8-4-11.8-11.5s7.1-11.6,14.7-11.6C605.5,607.7,610.8,608.6,613.4,611.2L613.4,611.2z"/>
</g>
<g>
	<path class="st3" d="M509.4,457.1c-7.4,0-13.4,6-13.4,13.4s6,13.4,13.4,13.4s13.4-6,13.4-13.4C522.8,463,516.8,457.1,509.4,457.1z
		 M502.8,470.4c0-3.7,3-6.7,6.7-6.7s6.7,3,6.7,6.7s-3,6.7-6.7,6.7S502.8,474.1,502.8,470.4z"/>
	<path class="st4" d="M507.4,516.5l2.1,1.5l2.1-1.5l0,0l0.1-0.1c0.1,0,0.2-0.1,0.3-0.2c0.2-0.2,0.6-0.5,1-0.8c0.8-0.7,2.1-1.7,3.5-3
		c2.9-2.6,6.7-6.2,10.6-10.5c3.9-4.3,7.8-9.3,10.8-14.6s5.1-11.1,5.1-16.9c0-8.9-3.5-17.4-9.8-23.6c-6.3-6.3-14.8-9.8-23.6-9.8
		s-17.4,3.5-23.6,9.8c-6.3,6.3-9.8,14.8-9.8,23.6c0,5.8,2.2,11.6,5.1,16.9c3,5.3,6.9,10.3,10.8,14.6c3.9,4.3,7.7,7.9,10.6,10.5
		c1.4,1.3,2.6,2.3,3.5,3c0.4,0.4,0.8,0.6,1,0.8C507.3,516.3,507.4,516.4,507.4,516.5L507.4,516.5L507.4,516.5L507.4,516.5z
		 M490.5,451.5c5-5,11.8-7.8,18.9-7.8s13.9,2.8,18.9,7.8s7.8,11.8,7.8,18.9c0,4.2-1.6,8.8-4.3,13.6c-2.7,4.7-6.2,9.3-9.9,13.4
		s-7.3,7.5-10.1,10c-0.9,0.8-1.8,1.6-2.5,2.1c-0.7-0.6-1.5-1.3-2.5-2.1c-2.8-2.4-6.4-5.9-10.1-10s-7.2-8.7-9.9-13.4
		c-2.7-4.8-4.3-9.4-4.3-13.6C482.7,463.3,485.5,456.5,490.5,451.5L490.5,451.5z"/>
</g>
<rect x="530" y="176.9" class="st5" width="120.1" height="120.1"/>
<rect x="530" y="176.9" class="st1" width="120.1" height="35.8"/>
<rect x="114.9" y="815.9" class="st5" width="182.4" height="182.4"/>
<rect x="114.9" y="815.9" class="st1" width="182.4" height="54.4"/>
<rect x="458.2" y="780.7" class="st5" width="79.6" height="79.6"/>
<rect x="458.2" y="780.7" class="st1" width="79.6" height="23.7"/>
<rect x="507.3" y="830.5" class="st5" width="79.6" height="79.6"/>
<rect x="507.3" y="830.5" class="st1" width="79.6" height="23.7"/>
<rect x="58.6" y="315.2" class="st5" width="120.1" height="120.1"/>
<rect x="58.6" y="315.2" class="st1" width="120.1" height="35.8"/>
</svg>
